<?xml version="1.0" encoding="UTF-8" standalone="no"?><!DOCTYPE svg PUBLIC "-//W3C//DTD SVG 1.1//EN" "http://www.w3.org/Graphics/SVG/1.1/DTD/svg11.dtd"><svg width="100%" height="100%" viewBox="0 0 2002 1624" version="1.1" xmlns="http://www.w3.org/2000/svg" xmlns:xlink="http://www.w3.org/1999/xlink" xml:space="preserve" xmlns:serif="http://www.serif.com/" style="fill-rule:evenodd;clip-rule:evenodd;stroke-linejoin:round;stroke-miterlimit:2;"><g><rect x="0" y="0" width="2001.2" height="1623.9" style="fill:#fff;fill-opacity:0;fill-rule:nonzero;"/><g><path d="M807.491,483.406l-14.02,4.302l-9.41,-21.789l-21.27,3.762l-9.71,-15.155l-7.68,4.915l12.99,20.27l20.16,-3.566l9.79,22.668l21.1,-6.474l-1.95,-8.933Z" style="fill:#50bfa5;fill-rule:nonzero;"/><path d="M1706.4,1267.12l-14.02,4.3l-9.41,-21.79l-21.27,3.77l-9.71,-15.16l-7.67,4.92l12.979,20.26l20.161,-3.56l9.79,22.67l21.1,-6.48l-1.95,-8.93Z" style="fill:#50bfa5;fill-rule:nonzero;"/><path d="M721.121,1525.09c-0,0 -74.8,-253.52 -80.8,-309.44c-6,-55.93 35.83,-38.6 35.83,-38.6c-0,0 -35.19,-106.56 -9.75,-131.85c25.45,-25.29 48.4,21.85 48.4,21.85c-0,0 7.7,-129.36 34.83,-129.4c50.52,-0.09 49.53,141.07 49.53,141.07c-0,0 12.89,-55.26 39.95,-40.11c40.8,22.85 -17.71,133.61 -17.71,133.61c-0,0 51.99,0.03 70.25,26.25c32.77,47.03 -170.53,326.62 -170.53,326.62Z" style="fill:#50bfa5;fill-rule:nonzero;"/><path d="M745.571,1491.54c-0,0 -215.63,-36.06 -262.53,-74.27c-46.9,-38.21 -0.48,-55.43 -0.48,-55.43c-0,0 -108.32,-55.53 -107.07,-93.29c1.26,-37.76 55.07,-18.56 55.07,-18.56c-0,0 -91.27,-104.08 -69.66,-123.85c40.24,-36.81 145.76,71.38 145.76,71.38c-0,0 -31.33,-51.45 1.66,-59.6c49.77,-12.27 86.49,114.59 86.49,114.59c-0,0 -9.33,-50.1 24.98,-43.42c61.57,11.97 125.78,282.45 125.78,282.45Z" style="fill:#50bfa5;fill-rule:nonzero;"/><path d="M619.791,1209.09c-34.39,-6.22 -24.98,43.42 -24.98,43.42c-0,0 -36.72,-126.86 -86.49,-114.59c-32.99,8.15 -1.66,59.6 -1.66,59.6c-0,0 -105.52,-108.19 -145.76,-71.38l383.95,365.46c-6.84,-34.91 -67.39,-272.09 -125.06,-282.51Z" style="fill:#3c8f7c;fill-rule:nonzero;"/><path d="M806.921,1521.28c-0,0 -113.56,-115.48 -170.74,-127.51c-57.19,-12.02 -46.9,28.66 -46.9,28.66c-0,0 -113.46,-99.22 -139.76,-75.18c-26.29,24.04 2.15,47.25 2.15,47.25c-0,0 -94.51,-16.74 -108.03,14.27c-20.79,47.65 134.64,73.59 134.64,73.59c-0,0 -65.14,4.52 -50.03,34.4c22.78,45.06 378.67,4.52 378.67,4.52Z" style="fill:#355389;fill-rule:nonzero;"/><path d="M343.641,1408.77c13.52,-31.01 108.03,-14.27 108.03,-14.27c-0,0 -28.44,-23.21 -2.15,-47.25c26.3,-24.04 136.23,61.69 136.23,61.69c-0,0 -25.92,-49.55 31.26,-37.52c57.19,12.03 189.91,149.86 189.91,149.86l-463.28,-112.51Z" style="fill:#466eb6;fill-rule:nonzero;"/><path d="M987.711,330.24c-38.23,6.29 -49.58,56.458 -17.8,78.898c5.71,4.03 9.66,10.092 11.34,16.874l5.78,23.336c1.6,6.431 7.86,10.559 14.4,9.483l14.48,-2.383c6.54,-1.076 11.16,-6.994 10.6,-13.596c-2.01,-24.093 -4.49,-32.832 3.34,-43.578c22.91,-31.434 -3.91,-75.325 -42.14,-69.034Z" style="fill:#f7cc7f;fill-rule:nonzero;"/><path d="M1009.46,363.952c-1.19,2.738 -0.74,6.245 -0.46,10.278c3.13,-1.782 6.76,-4.01 7.94,-7.274c0.83,-2.288 -0.1,-5.524 -2.43,-6.12c-0.26,-0.064 -4.21,1.195 -5.05,3.116Zm-35.43,14.799c1.95,2.098 5.21,3.021 9.97,2.802c-0.82,-3.507 -2.04,-6.662 -4.45,-8.902c-5.44,-5.055 -8.78,2.58 -5.52,6.1Zm17.58,53.481c-2.49,-20.641 -5.98,-42.433 -7.17,-48.614c-21.91,1.209 -13.58,-21.886 -3.47,-12.495c2.88,2.676 4.24,6.306 5.14,10.282c7.27,-0.655 14.39,-2.733 20.87,-6.082c-0.35,-5.09 -0.85,-8.947 0.57,-12.205c2.15,-4.92 8.38,-6.26 10.92,-1.465c0.95,1.8 1.12,4.103 0.43,6.01c-1.47,4.07 -5.89,6.759 -9.75,8.865c1.16,16.41 2.75,32.946 4.76,49.231l-2.06,0.256c-1.98,-16.022 -3.56,-32.287 -4.71,-48.435c-6.44,3.2 -13.44,5.205 -20.61,5.88c1.5,7.902 4.81,29.144 7.15,48.523l-2.07,0.249Z" style="fill:#fae0b2;fill-rule:nonzero;"/><path d="M981.081,425.435c0.05,0.194 0.12,0.381 0.17,0.577l5.78,23.336c1.6,6.431 7.86,10.559 14.4,9.483l14.48,-2.383c6.54,-1.076 11.16,-6.994 10.6,-13.596c-0.89,-10.718 -1.88,-18.393 -2.01,-24.562l-43.42,7.145Z" style="fill:#96d9c9;fill-rule:nonzero;"/><path d="M959.371,312.814l-11.43,-20.864c-1.1,-2.019 -0.36,-4.553 1.66,-5.659c2.02,-1.106 4.55,-0.366 5.66,1.653l11.43,20.865c1.1,2.019 0.36,4.553 -1.66,5.659c-2.03,1.112 -4.56,0.355 -5.66,-1.654Z" style="fill:#fae0b2;fill-rule:nonzero;"/><path d="M934.391,363.283l-24.92,-2.178c-2.29,-0.201 -3.99,-2.223 -3.78,-4.517c0.2,-2.293 2.22,-3.991 4.51,-3.79l24.92,2.179c2.29,0.2 3.99,2.223 3.79,4.516c-0.2,2.293 -2.22,3.989 -4.52,3.79Z" style="fill:#fae0b2;fill-rule:nonzero;"/><path d="M909.691,439.668c-1.62,-1.638 -1.61,-4.277 0.03,-5.895c6.13,-6.052 12.86,-11.546 20.02,-16.33c1.91,-1.28 4.5,-0.764 5.78,1.15c1.28,1.915 0.77,4.504 -1.15,5.783c-6.72,4.49 -13.04,9.647 -18.79,15.327c-1.63,1.611 -4.27,1.611 -5.89,-0.035Z" style="fill:#fae0b2;fill-rule:nonzero;"/><path d="M1020.93,311.687c-2.22,-0.595 -3.54,-2.88 -2.95,-5.104c2.82,-10.562 4.55,-21.455 5.14,-32.372c0.13,-2.299 2.09,-4.066 4.39,-3.938c2.3,0.123 4.06,2.087 3.94,4.386c-0.62,11.492 -2.44,22.958 -5.41,34.076c-0.6,2.238 -2.9,3.545 -5.11,2.952Z" style="fill:#fae0b2;fill-rule:nonzero;"/><path d="M1046.59,343.715c-0.66,-2.205 0.58,-4.53 2.79,-5.195l25.9,-7.807c2.21,-0.664 4.53,0.585 5.2,2.789c0.66,2.205 -0.59,4.53 -2.79,5.195l-25.9,7.806c-2.2,0.662 -4.53,-0.579 -5.2,-2.788Z" style="fill:#fae0b2;fill-rule:nonzero;"/><path d="M1089.14,412.637c-0.37,0 -0.75,-0.05 -1.13,-0.156c-8.98,-2.523 -17.7,-6.021 -25.94,-10.397c-2.03,-1.081 -2.8,-3.605 -1.72,-5.638c1.08,-2.033 3.6,-2.805 5.63,-1.725c7.71,4.096 15.88,7.371 24.29,9.733c2.21,0.623 3.5,2.925 2.88,5.142c-0.52,1.839 -2.19,3.041 -4.01,3.041Z" style="fill:#fae0b2;fill-rule:nonzero;"/><path d="M1468.53,596.931l-13.07,-30.902l-32.86,-6.753c-3.74,-0.769 -4.98,-5.496 -2.09,-7.999l25.35,-21.978l-3.74,-33.342c-0.42,-3.798 3.69,-6.434 6.97,-4.462l28.73,17.318l30.56,-13.854c3.48,-1.578 7.26,1.521 6.39,5.243l-7.59,32.68l22.619,24.781c2.581,2.822 0.801,7.373 -3.009,7.701l-33.43,2.88l-16.57,29.169c-1.89,3.322 -6.77,3.037 -8.26,-0.482Z" style="fill:#f7cc7f;fill-rule:nonzero;"/><path d="M1676.56,490.901l-5.37,21.633l-35.77,-4.798l-11.75,30.661l-27.35,0.785l0.4,13.845l36.57,-1.049l11.15,-29.057l37.2,4.991l8.08,-32.553l-13.16,-4.458Z" style="fill:#f48c7f;fill-rule:nonzero;"/><path d="M1357.93,1527.92l-628.65,0c-24.01,0 -43.47,-20.19 -43.47,-45.09l-0,-26.82c-0,-24.9 19.46,-45.09 43.47,-45.09l628.65,0c-28.75,32.6 -29.25,82.42 -1.15,115.64l1.15,1.36Z" style="fill:#b75742;fill-rule:nonzero;"/><path d="M1348.23,1424.34l-348.69,0c-24.01,0 -43.47,20.19 -43.47,45.09c-0,24.91 19.46,45.09 43.47,45.09l348.72,0c-16.3,-27.66 -16.27,-62.59 -0.03,-90.18Z" style="fill:#fae0b2;fill-rule:nonzero;"/><path d="M1137.08,1329.66c0.91,-1.71 -0.48,-3.7 -2.59,-3.7l-332.64,0c-26.08,0 -47.21,19.02 -47.21,42.49c-0,23.46 21.13,42.49 47.21,42.49l332.73,0c2.12,0 3.52,-2 2.59,-3.72c-13.17,-24.56 -13.14,-53.11 -0.09,-77.56Z" style="fill:#86b1f2;fill-rule:nonzero;"/><path d="M1134.98,1333.88l-164.86,0c-30.6,0 -55.4,15.94 -55.4,35.6c-0,19.67 24.8,35.61 55.4,35.61l165.94,0c-11.34,-22.66 -11.65,-48.46 -1.08,-71.21Z" style="fill:#f7cc7f;fill-rule:nonzero;"/><path d="M1092.4,1350.76l-21.47,0c-4.61,0 -8.36,1.55 -8.36,3.46l-0,0.31l29.83,0l-0,-3.77Z" style="fill:#b75742;fill-rule:nonzero;"/><path d="M1110.72,1359.43c-0,-4.8 -5.61,-8.68 -12.53,-8.68l-27.55,0c5.25,0 9.5,2.95 9.5,6.58l-0.13,93.09l15.22,-11.97l15.52,11.97l-0.03,-90.99Z" style="fill:#f47458;fill-rule:nonzero;"/><path d="M1075.92,1322.9l-193.55,0c-17.16,0 -31.07,-16.52 -31.07,-36.89c-0,-20.37 13.91,-36.88 31.07,-36.88l193.55,0c-14.79,20.45 -15.37,50.44 -1.38,71.67l1.38,2.1Z" style="fill:#fae0b2;fill-rule:nonzero;"/><path d="M851.321,1286.02c-0,-20.37 14.24,-36.88 31.81,-36.88l196.48,0c0.92,0 1.66,-0.87 1.65,-1.93c-0.01,-1.05 -0.75,-1.89 -1.65,-1.89l-311.7,0c-19.38,0 -35.1,18.22 -35.1,40.7c-0,22.49 15.72,40.71 35.1,40.71l311.7,0c0.9,0 1.64,-0.85 1.65,-1.89c0.01,-1.07 -0.74,-1.93 -1.65,-1.93l-196.48,0c-17.57,0 -31.81,-16.52 -31.81,-36.89Z" style="fill:#466eb6;fill-rule:nonzero;"/><path d="M1042.12,1267.26l-21.47,0c-4.61,0 -8.36,1.53 -8.36,3.4l-0,0.31l29.83,0l-0,-3.71Z" style="fill:#184655;fill-rule:nonzero;"/><path d="M1060.44,1275.78c-0,-4.7 -5.61,-8.52 -12.53,-8.52l-27.55,0c5.25,0 9.5,2.9 9.5,6.46l-0.13,91.29l15.22,-11.74l15.52,11.74l-0.03,-89.23Z" style="fill:#3c8f7c;fill-rule:nonzero;"/><path d="M1384.3,703.382l28.571,-7.519l-19.36,258.302l-34.28,1.14l17.29,-242.538c0.32,-4.472 3.45,-8.244 7.779,-9.385Z" style="fill:#184655;fill-rule:nonzero;"/><path d="M1396.07,961.525c-0.64,0.06 -1.29,0.05 -1.96,-0.03c-5.67,-0.67 -9.87,-6.31 -9.38,-12.6l19.02,-242.88c0.49,-6.293 5.49,-10.852 11.17,-10.179c5.67,0.671 9.87,6.314 9.379,12.607l-19.019,242.882c-0.44,5.55 -4.39,9.76 -9.21,10.2Z" style="fill:#f7cc7f;fill-rule:nonzero;"/><path d="M1133.1,974.465c0.01,0.18 0.02,0.35 0.04,0.53c0.89,9.88 8.55,17.28 17.09,16.51l241.31,-21.6c8.55,-0.76 14.75,-9.39 13.86,-19.27c-0.04,-0.42 -0.09,-0.83 -0.16,-1.24l-272.14,25.07Z" style="fill:#f7cc7f;fill-rule:nonzero;"/><path d="M1301.13,1235.35c-15.801,8.76 -64.1,-6.6 -64.1,-7.99c-0.69,13.2 -54.08,142.4 -54.08,142.4l0.04,39.75c-0,0 110.01,5.24 108.43,-4.48c-1.581,-9.72 -7.5,-3.4 -29.44,-21.76c-1.95,-1.63 -32.76,-8.78 -24.43,-27.02c16.8,-36.73 52.46,-97.97 63.58,-120.9Z" style="fill:#f7a491;fill-rule:nonzero;"/><path d="M1179.37,1410.92l120.429,0.03c4.341,-0.44 5.361,-3.98 3.821,-6.13c-3.16,-4.42 -26.24,-14.86 -41.75,-21.78c-27.02,3.15 -74.52,-7.24 -78.87,-13.4c-11.44,15.32 -6.05,40.78 -3.63,41.28Z" style="fill:#3c8f7c;fill-rule:nonzero;"/><path d="M1152.96,1142.59c-1.63,-4.89 103.68,-49.58 108.39,-44.47c8.34,9.03 -56.98,178.57 -56.98,178.57l75.05,22.93c-0,0 78.01,-195.87 74.75,-231.7c-3.25,-35.82 -42.331,-76.53 -127.01,-50.48c-84.68,26.06 -74.2,125.15 -74.2,125.15Z" style="fill:#355389;fill-rule:nonzero;"/><path d="M1371,1257.62c-17.78,-3.23 -40.82,-4.15 -59.27,-4.47c2.18,16.42 12.73,100.63 10.8,105.81c-7.81,20.96 -25.15,30.77 -25.15,30.77c-0,0 81.77,73.78 86.7,65.26c4.94,-8.52 -3.64,-7.38 -8.98,-35.49c-0.47,-2.5 -12.301,-41.74 -13.03,-62.9c-1.4,-40.36 8.32,-76.56 8.93,-98.98Z" style="fill:#f7a491;fill-rule:nonzero;"/><path d="M1344.76,982.125c-11.41,-6.08 -41.02,-6.3 -73.58,-4.19c-63.49,4.12 -126.16,16.61 -186.55,36.62l-40.41,13.38l0.13,-41.43c-0,0 -128.56,-21.51 -133.04,10.35c-6.73,47.98 1.63,145.4 44.46,167.14c133.05,67.54 319.5,-107.59 320.18,-84.68c0.899,30.77 26.84,145.28 33.48,195.41c18.44,0.32 50.13,0.31 63.88,-2.85c2.67,-98.21 3.92,-272.42 -28.55,-289.75Z" style="fill:#466eb6;fill-rule:nonzero;"/><path d="M1294.88,1391.46l91.93,73.42c3.64,2.42 6.66,0.33 6.84,-2.31c0.36,-5.43 -10.88,-28.13 -18.49,-43.31c-22.9,-14.69 -53.111,-52.98 -52.56,-60.5c-9.7,8.18 -29.271,30.77 -27.72,32.7Z" style="fill:#3c8f7c;fill-rule:nonzero;"/><path d="M1086.82,581.633c-3.08,-28.226 -6.34,-56.556 -29.73,-77.245c-18.94,-16.742 -43.01,-19.578 -66.82,-10.621c-67.45,25.38 -32.7,85.283 -118.7,145.679c-26.73,18.767 -56.18,31.612 -76.3,56.883c-28.17,35.372 -17.53,77.92 8.13,106.327c122.82,135.919 259.93,-47.643 269.78,-91.707c7.32,-32.781 15.63,-111.146 13.64,-129.316Z" style="fill:#13375b;fill-rule:nonzero;"/><path d="M1061.88,740.357c-10.03,-18.495 -20.36,-33.171 -20.36,-33.171c-10.41,-18.498 -37.29,-27.854 -37.29,-27.854c-0,0 -8.99,0.182 -19.32,0.689c-0.64,1.712 -1.29,2.937 -1.95,3.429c-3.88,2.91 -26.12,-0.847 -40.48,8.905c-48.15,41.272 -34.83,241.32 -31.05,304.5l146.64,1.39c-0,0 -18.49,-135.95 11.3,-170.88c20.75,-24.324 7.4,-59.574 -7.49,-87.008Z" style="fill:#50bfa5;fill-rule:nonzero;"/><path d="M995.791,611.655c-0,0 -8.06,57.563 -13.69,71.551c-5.63,13.988 30.95,43.904 61.39,52.984c30.44,9.081 -9.3,-30.898 -8.04,-45.852c1.26,-14.953 6.8,-85.754 6.8,-85.754l-46.46,7.071Z" style="fill:#f7a491;fill-rule:nonzero;"/><path d="M1040.71,624.888c0.89,-11.712 1.54,-20.304 1.54,-20.304l-46.46,7.071c-0,0 -1.17,6.762 -2.47,16.325c18.84,10.926 35.77,7.478 47.39,-3.092Z" style="fill:#f47458;fill-rule:nonzero;"/><path d="M1010.36,506.513c-0,0 -18.31,4.127 -29.62,21.381c-11.3,17.254 -19.06,68.048 18.18,91.757c37.23,23.711 66.19,-9.828 66.67,-42.54c0.48,-32.712 -6.53,-76.367 -55.23,-70.598Z" style="fill:#f7a491;fill-rule:nonzero;"/><path d="M1074.12,566.874c-3.18,7.894 -9.48,12.792 -14.08,10.941c-4.6,-1.85 -5.75,-9.75 -2.57,-17.643c3.17,-7.893 9.47,-12.792 14.07,-10.941c4.6,1.851 5.75,9.75 2.58,17.643Z" style="fill:#f7a491;fill-rule:nonzero;"/><path d="M1015.85,505.441c-0,0 -23.34,52.362 -43.85,57.039c-20.51,4.676 -20.21,31.023 -20.21,31.023c-0,0 0.45,-60.843 19.68,-74.799c19.22,-13.956 44.38,-13.263 44.38,-13.263Z" style="fill:#13375b;fill-rule:nonzero;"/><path d="M980.151,573.362c2.7,8.504 0.23,16.876 -5.52,18.702c-5.75,1.824 -12.6,-3.589 -15.3,-12.093c-2.7,-8.503 -0.23,-16.876 5.52,-18.701c5.75,-1.825 12.6,3.589 15.3,12.092Z" style="fill:#f7a491;fill-rule:nonzero;"/><path d="M1242.42,951.385c-8.8,-3.18 -21.89,-3.58 -21.67,-4.74c0.88,-4.7 39.75,10.38 34.5,3.52c-2.93,-3.82 -32.01,-17.35 -39.09,-15.12c-6.86,2.17 -51.9,14.81 -51.9,14.81l-123.11,-28.85c-0,0 -31.07,-70.609 -34.11,-131.277c-25.68,3.473 -43.17,9.821 -65.49,22.207c10.76,58.02 36.93,152.06 65.86,169.71c12.16,7.42 157.46,-8.89 157.46,-8.89c-0,0 32.02,-2.26 37.25,-4.27c3.97,-1.53 14.19,-7.28 19.74,-8.86c12.64,-3.57 35.14,5.41 35.21,2.93c0.05,-1.8 -5.66,-7.92 -14.65,-11.17Z" style="fill:#f7a491;fill-rule:nonzero;"/><path d="M1007.8,724.909c-1.19,-18.668 -8.26,-36.691 -28.12,-42.495c-12.31,-3.597 -26.12,-0.155 -35.96,7.879c-11.7,9.56 -14.97,24.893 -14.91,39.405c0.12,32.953 2.37,67.119 8.39,99.567c22.32,-12.39 48.38,-19.84 74.07,-23.315c-0.01,-0.193 -1.91,-56.37 -3.47,-81.041Z" style="fill:#96d9c9;fill-rule:nonzero;"/><path d="M626.371,760.132l-190.86,-35.54c-3.83,-0.714 -6.36,-4.4 -5.65,-8.233l23.91,-128.395c0.72,-3.833 4.4,-6.362 8.24,-5.649l190.85,35.541c3.84,0.713 6.37,4.399 5.65,8.233l-23.91,128.395c-0.71,3.833 -4.4,6.362 -8.23,5.648Z" style="fill:#f7cc7f;fill-rule:nonzero;"/><path d="M535.521,613.351l-58.1,-10.819c-3.83,-0.713 -6.36,-4.399 -5.65,-8.232l3.64,-19.537c0.72,-3.833 4.4,-6.363 8.24,-5.648l58.09,10.818c3.84,0.714 6.36,4.4 5.65,8.233l-3.64,19.537c-0.71,3.833 -4.4,6.361 -8.23,5.648Z" style="fill:#f7cc7f;fill-rule:nonzero;"/><path d="M635.061,755.222c-0.99,3.513 -4.5,5.691 -8.09,5.023l-192.1,-35.772c-3.57,-0.666 -6.06,-3.935 -5.74,-7.555l10.05,-115.093c0.18,-1.983 1.18,-3.802 2.76,-5.006c1.59,-1.205 3.61,-1.684 5.57,-1.32l213.41,39.74c1.95,0.363 3.66,1.53 4.7,3.215c1.05,1.686 1.34,3.734 0.8,5.643l-31.36,111.125Z" style="fill:#fae0b2;fill-rule:nonzero;"/><path d="M1510.46,334.688l-32.68,8.923l-7.04,-39.606l10.69,-1.9l4.96,27.895l21.21,-5.79l2.86,10.478Z" style="fill:#50bfa5;fill-rule:nonzero;"/><path d="M469.231,878.615c8.19,-0.67 20.75,2.94 26.39,6.76c0.84,0.79 7.32,3.37 14.06,14.53l-1.52,1.05c-7.1,-7.44 -11.88,-9.11 -17.58,-10.82c-9.38,-2.41 -18.84,-0.61 -19.61,-0.19l-1.74,-11.33Z" style="fill:#355389;fill-rule:nonzero;"/><path d="M508.921,900.425c-0,0 -49.87,8.32 -45.22,47.28c4.65,38.96 57.26,69.26 104.22,45.17c63.16,-32.41 38.21,-114.82 -6.75,-121.19c-44.95,-6.37 -52.25,28.74 -52.25,28.74Z" style="fill:#f47458;fill-rule:nonzero;"/><path d="M530.081,883.275c-0,0 13.01,-13.36 41.51,-1.21c28.51,12.15 30.57,68.82 5.15,65.53c-25.43,-3.29 -66.99,-56.15 -46.66,-64.32Z" style="fill:#f48c7f;fill-rule:nonzero;"/><path d="M873.131,365.725l-205.1,73.163c-6.61,2.359 -13.88,-1.089 -16.24,-7.7l-37.85,-106.125c-2.36,-6.611 1.09,-13.883 7.7,-16.241l205.1,-73.163c6.61,-2.358 13.88,1.089 16.24,7.7l37.85,106.125c2.36,6.611 -1.08,13.882 -7.7,16.241Z" style="fill:#86b1f2;fill-rule:nonzero;"/><path d="M737.191,338.446c7.54,21.143 -3.48,44.397 -24.63,51.939c-21.14,7.543 -44.39,-3.484 -51.94,-24.626c-7.54,-21.143 3.49,-44.397 24.63,-51.939c21.14,-7.543 44.4,3.483 51.94,24.626Z" style="fill:#fff;fill-rule:nonzero;"/><path d="M704.731,332.757c2.23,6.235 -1.03,13.092 -7.26,15.316c-6.24,2.224 -13.09,-1.027 -15.32,-7.262c-2.22,-6.235 1.03,-13.092 7.27,-15.316c6.23,-2.224 13.09,1.028 15.31,7.262Z" style="fill:#86b1f2;fill-rule:nonzero;"/><path d="M724.261,366.18l-36.07,12.869l-1.45,-4.049c-2.63,-7.387 1.22,-15.512 8.61,-18.146l9.32,-3.327c7.39,-2.635 15.51,1.217 18.15,8.604l1.44,4.049Z" style="fill:#86b1f2;fill-rule:nonzero;"/><path d="M742.241,316.26c-2.18,0 -4.14,-1.383 -4.88,-3.442c-0.96,-2.692 0.45,-5.664 3.14,-6.624l89.66,-31.983c0.56,-0.2 1.15,-0.302 1.74,-0.302c2.19,0 4.15,1.384 4.88,3.443c0.96,2.691 -0.44,5.663 -3.14,6.624l-89.65,31.983c-0.57,0.2 -1.15,0.301 -1.75,0.301Z" style="fill:#fff;fill-rule:nonzero;"/><path d="M766.451,338.611c-2.19,0 -4.15,-1.383 -4.89,-3.443c-0.96,-2.692 0.45,-5.663 3.15,-6.624l70.02,-24.979c0.56,-0.2 1.15,-0.302 1.74,-0.302c2.19,0 4.15,1.384 4.88,3.443c0.47,1.304 0.4,2.711 -0.19,3.962c-0.6,1.251 -1.64,2.196 -2.95,2.662l-70.02,24.979c-0.56,0.2 -1.15,0.302 -1.74,0.302Z" style="fill:#fff;fill-rule:nonzero;"/><path d="M1191.81,1166.2l-495.24,0c-15.38,0 -27.84,12.47 -27.84,27.85l-0,23.42c-0,15.38 12.46,27.85 27.84,27.85l495.24,0l-0.26,-0.27c-21.18,-22.05 -21.07,-56.93 0.26,-78.85Z" style="fill:#f47458;fill-rule:nonzero;"/><path d="M1183.05,1177.91l-264.75,0c-15.38,0 -27.85,12.47 -27.85,27.85c-0,15.38 12.47,27.85 27.85,27.85l264.74,0c-9.73,-17.25 -9.72,-38.47 0.01,-55.7Z" style="fill:#fae0b2;fill-rule:nonzero;"/><path d="M1597.14,1168.49l-37.54,-94.18c-1.89,-4.74 0.42,-10.11 5.16,-12l135.08,-53.84c4.74,-1.89 10.11,0.42 12,5.16l37.54,94.18c1.89,4.74 -0.42,10.11 -5.16,12l-135.08,53.84c-4.74,1.89 -10.11,-0.42 -12,-5.16Z" style="fill:#fae0b2;fill-rule:nonzero;"/><path d="M1724.57,1114.03l-33.74,-84.63c-0.54,-1.36 0.12,-2.9 1.48,-3.44c1.36,-0.54 2.9,0.12 3.45,1.48l33.73,84.63c0.54,1.36 -0.12,2.9 -1.48,3.44c-1.36,0.54 -2.9,-0.12 -3.44,-1.48Z" style="fill:#466eb6;fill-rule:nonzero;"/><path d="M1708.49,1102.88l-27.691,-69.48c-0.539,-1.36 0.121,-2.9 1.481,-3.44c1.36,-0.55 2.9,0.12 3.44,1.48l27.7,69.48c0.54,1.36 -0.121,2.9 -1.48,3.45c-1.36,0.54 -2.9,-0.12 -3.45,-1.49Z" style="fill:#466eb6;fill-rule:nonzero;"/><path d="M1704.5,1122.03l-33.74,-84.63c-0.54,-1.36 0.12,-2.9 1.48,-3.44c1.36,-0.55 2.91,0.12 3.45,1.48l33.73,84.63c0.54,1.36 -0.121,2.9 -1.48,3.44c-1.36,0.54 -2.9,-0.12 -3.44,-1.48Z" style="fill:#466eb6;fill-rule:nonzero;"/><path d="M1686.77,1106.71l-26.04,-65.32c-0.54,-1.36 0.12,-2.9 1.48,-3.44c1.36,-0.55 2.9,0.12 3.44,1.48l26.04,65.32c0.54,1.36 -0.12,2.9 -1.48,3.44c-1.36,0.54 -2.9,-0.12 -3.44,-1.48Z" style="fill:#466eb6;fill-rule:nonzero;"/><path d="M1723.66,1020.37l-0.68,-1.7c-0.25,-0.63 -0.931,-0.95 -1.52,-0.71l-12.82,5.11c-0.591,0.23 -0.87,0.94 -0.62,1.56l0.68,1.71c0.25,0.62 0.93,0.94 1.52,0.71l12.82,-5.11c0.59,-0.24 0.87,-0.94 0.62,-1.57Z" style="fill:#355389;fill-rule:nonzero;"/><path d="M1726.57,1027.65l-0.68,-1.7c-0.25,-0.63 -0.93,-0.95 -1.53,-0.71l-12.82,5.11c-0.59,0.23 -0.86,0.93 -0.61,1.56l0.68,1.71c0.25,0.62 0.93,0.94 1.52,0.71l12.82,-5.11c0.59,-0.24 0.87,-0.94 0.62,-1.57Z" style="fill:#355389;fill-rule:nonzero;"/><path d="M1729.47,1034.94l-0.68,-1.7c-0.25,-0.63 -0.93,-0.95 -1.52,-0.71l-12.82,5.11c-0.59,0.23 -0.87,0.93 -0.62,1.56l0.68,1.71c0.25,0.62 0.93,0.94 1.52,0.71l12.83,-5.12c0.58,-0.23 0.86,-0.93 0.61,-1.56Z" style="fill:#355389;fill-rule:nonzero;"/><path d="M1732.38,1042.24l-0.68,-1.7c-0.25,-0.63 -0.93,-0.95 -1.52,-0.71l-12.82,5.11c-0.59,0.23 -0.87,0.93 -0.62,1.56l0.68,1.71c0.25,0.62 0.93,0.94 1.52,0.7l12.82,-5.11c0.59,-0.23 0.87,-0.93 0.62,-1.56Z" style="fill:#355389;fill-rule:nonzero;"/><path d="M1735.28,1049.53l-0.68,-1.7c-0.25,-0.63 -0.93,-0.95 -1.52,-0.71l-12.82,5.11c-0.59,0.23 -0.86,0.93 -0.62,1.56l0.68,1.7c0.25,0.63 0.94,0.95 1.53,0.71l12.82,-5.11c0.59,-0.23 0.86,-0.93 0.61,-1.56Z" style="fill:#355389;fill-rule:nonzero;"/><path d="M1738.19,1056.82l-0.68,-1.7c-0.25,-0.63 -0.93,-0.95 -1.52,-0.71l-12.82,5.11c-0.59,0.23 -0.871,0.93 -0.621,1.56l0.681,1.7c0.25,0.63 0.93,0.95 1.52,0.71l12.82,-5.11c0.59,-0.23 0.87,-0.93 0.62,-1.56Z" style="fill:#355389;fill-rule:nonzero;"/><path d="M1741.09,1064.11l-0.68,-1.7c-0.25,-0.63 -0.93,-0.95 -1.52,-0.71l-12.82,5.11c-0.59,0.23 -0.86,0.93 -0.61,1.56l0.68,1.7c0.25,0.63 0.93,0.95 1.52,0.71l12.82,-5.11c0.59,-0.23 0.86,-0.93 0.61,-1.56Z" style="fill:#355389;fill-rule:nonzero;"/><path d="M1744,1071.39l-0.68,-1.7c-0.25,-0.63 -0.93,-0.95 -1.521,-0.71l-12.819,5.11c-0.59,0.23 -0.87,0.93 -0.62,1.56l0.68,1.7c0.25,0.63 0.93,0.95 1.52,0.71l12.82,-5.11c0.59,-0.23 0.87,-0.93 0.62,-1.56Z" style="fill:#355389;fill-rule:nonzero;"/><path d="M1746.9,1078.68l-0.68,-1.7c-0.25,-0.63 -0.93,-0.95 -1.52,-0.71l-12.82,5.11c-0.59,0.23 -0.86,0.93 -0.61,1.56l0.68,1.7c0.25,0.63 0.93,0.95 1.52,0.71l12.82,-5.11c0.59,-0.23 0.86,-0.93 0.61,-1.56Z" style="fill:#355389;fill-rule:nonzero;"/><path d="M1749.81,1085.97l-0.68,-1.7c-0.25,-0.63 -0.93,-0.95 -1.52,-0.71l-12.82,5.11c-0.59,0.23 -0.87,0.93 -0.62,1.56l0.68,1.7c0.25,0.63 0.93,0.95 1.52,0.71l12.82,-5.11c0.59,-0.23 0.87,-0.93 0.62,-1.56Z" style="fill:#355389;fill-rule:nonzero;"/><path d="M1752.71,1093.27l-0.68,-1.71c-0.24,-0.62 -0.92,-0.94 -1.52,-0.7l-12.82,5.11c-0.59,0.23 -0.86,0.93 -0.61,1.56l0.68,1.7c0.25,0.63 0.93,0.95 1.52,0.71l12.82,-5.11c0.59,-0.23 0.86,-0.93 0.61,-1.56Z" style="fill:#355389;fill-rule:nonzero;"/><path d="M1755.62,1100.56l-0.68,-1.71c-0.25,-0.62 -0.93,-0.94 -1.52,-0.71l-12.82,5.12c-0.59,0.23 -0.87,0.93 -0.62,1.56l0.68,1.7c0.25,0.63 0.93,0.95 1.52,0.71l12.82,-5.11c0.59,-0.24 0.87,-0.93 0.62,-1.56Z" style="fill:#355389;fill-rule:nonzero;"/><path d="M1791.04,1093.06l-53.61,76.34c-0.12,0.17 -0.22,0.36 -0.28,0.56l-5.47,16.77c-0.631,1.95 1.619,3.57 3.26,2.33l14.35,-10.82c0.18,-0.13 0.33,-0.29 0.46,-0.47l53.75,-76.54c0.69,-0.98 0.42,-2.33 -0.59,-2.97l-9.02,-5.77c-0.95,-0.6 -2.2,-0.35 -2.85,0.57Z" style="fill:#b75742;fill-rule:nonzero;"/><path d="M1749.69,1177.85l-0.13,0.19l-13.85,10.44l-3.77,-2.53l5.18,-15.9c4.05,2.22 8.91,4.5 12.57,7.8Z" style="fill:#f7cc7f;fill-rule:nonzero;"/><path d="M1247.89,266.583c7.72,6.159 21.15,25.979 38.27,39.894c10.02,8.138 17.74,6.068 30.53,7.614c60.68,7.335 44.24,19.739 51.52,20.957c-2.07,4.757 -20.98,44.944 -24.51,53.066c-3.26,7.493 -8.89,10.846 -17.05,9.717c-12.55,-1.735 -25.21,-3.025 -37.571,-5.704c-31.669,-6.868 -49.289,-22.708 -71.989,-41.945c-6.02,-5.104 -7.5,-11.47 -4.38,-18.683c14.53,-33.571 33.61,-61.826 35.18,-64.916Z" style="fill:#466eb6;fill-rule:nonzero;"/><path d="M1374.78,383.392c-0.27,13.224 0.74,15.878 -4.94,13.872c-3.42,-1.207 -6.73,-2.781 -9.96,-4.447c-2.27,-1.176 -2.36,-2.727 -0.51,-4.586c2.69,-2.705 5.46,-5.339 8.15,-7.965c-1.971,-5.186 0.29,-11.223 5.14,-14.061c0.99,-0.58 0.27,0.65 8.72,-18.8c-27.95,-3.448 -47.67,-5.761 -81.76,-9.953c-9.11,-1.121 -17.22,-4.665 -24.271,-10.563c-24.359,-20.375 -48.709,-40.752 -73.039,-61.149c-3.3,-2.767 -3.72,-6.821 -1.1,-9.941c2.01,-2.387 4.66,-2.501 7.52,-2.143c7.78,0.975 84.069,10.453 91.819,11.359c10.181,1.189 19.141,5.023 27.011,11.612c23.92,20.034 47.91,39.996 71.86,59.993c3.29,2.744 4.18,5.262 3.02,8.314c-1.27,3.353 -4.04,4.952 -8.22,4.048c-3.03,-0.652 -4.36,0.26 -5.4,3.058c-4.7,12.649 -7.98,15.449 -6.85,20.067c0.88,3.565 -3.36,9.736 -7.19,11.285Z" style="fill:#86b1f2;fill-rule:nonzero;"/><path d="M1501.35,1281.73l13.9,13.26c32.89,31.37 59.71,68.53 79.11,109.62l2.13,4.51c-0,0 36.41,3.22 41.49,-29.7c-31.94,-36.06 -58.23,-74.57 -79.931,-117.4l-6.579,-15.39l-50.12,35.1Z" style="fill:#466eb6;fill-rule:nonzero;"/><path d="M1551.43,1246.59c1.79,2.56 -7.97,12.46 -21.81,22.1c-13.83,9.65 -26.56,15.51 -28.34,12.95c-1.79,-2.56 8.04,-12.58 21.87,-22.22c13.83,-9.65 26.5,-15.4 28.28,-12.83Z" style="fill:#86b1f2;fill-rule:nonzero;"/><path d="M1551.49,1246.67l-0.04,-0.05c-0,0 -27.72,23.46 -39.14,25.85l3.53,4.8c4.17,-2.25 8.91,-5.18 13.78,-8.59c13.679,-9.53 23.37,-19.31 21.87,-22.01Z" style="fill:#355389;fill-rule:nonzero;"/><path d="M1588.52,1314.79c0.05,4.04 -1.5,21.5 -30.54,28.78c1.91,2.6 3.79,5.23 5.63,7.88c18.38,-5.44 26.65,-14.87 30.37,-22.06c0.58,-1.13 1.29,-2.66 1.76,-3.84c-2.45,-3.56 -4.86,-7.14 -7.22,-10.76Z" style="fill:#b75742;fill-rule:nonzero;"/><path d="M1560.59,1338.4l-42.74,-1.53l10.13,8.6l-6.05,10.98l40.45,-10.31l-1.79,-7.74Z" style="fill:#b75742;fill-rule:nonzero;"/><path d="M1564.48,1348.35l-15.181,26.45l10.681,-4.06l4.11,8.4l7.14,-27.82l-6.75,-2.97Z" style="fill:#b75742;fill-rule:nonzero;"/><path d="M1570.28,1355.52c-7.5,0.53 -14.03,-5.31 -14.58,-13.04c-0.55,-7.73 5.09,-14.43 12.599,-14.96c7.5,-0.53 14.031,5.31 14.581,13.04c0.55,7.73 -5.09,14.43 -12.6,14.96Z" style="fill:#f47458;fill-rule:nonzero;"/><path d="M1661,755.347l-90,-80.311c-5.85,-5.219 -3.42,-15.957 4.65,-20.526l71.83,-40.671c4.6,-2.604 9.78,-2.362 13.11,0.613l90,80.311c5.85,5.219 3.42,15.957 -4.65,20.526l-71.83,40.671c-4.6,2.604 -9.78,2.362 -13.11,-0.613Z" style="fill:#9bc1f9;fill-rule:nonzero;"/><path d="M1656.73,691.46l-7.5,-61.704c-0.29,-2.362 1.43,-4.888 3.84,-5.639c2.41,-0.753 4.6,0.557 4.89,2.919l6.9,56.779l68.25,16.503c2.22,0.538 3.25,2.937 2.29,5.361c-0.96,2.42 -3.55,3.947 -5.78,3.407l-72.89,-17.626Z" style="fill:#fff;fill-rule:nonzero;"/><path d="M137.339,1527.18c-4.817,0 -8.722,4.52 -8.722,10.1c-0,5.57 3.905,10.09 9.764,3.31l1772.62,0c2.27,0 4.11,-2.97 4.12,-6.66c0.02,-3.72 -1.83,-6.75 -4.12,-6.75l-1773.66,0Z" style="fill:#184655;fill-rule:nonzero;"/><path d="M481.471,408.829l9.3,18.402l21.02,-0.679l8.97,21.366l22.16,-7.627l11.21,23.716l21.27,-4.507l14.51,21.055l-7.97,5.493l-10.85,-15.742l-22.45,4.756l-10.77,-22.797l-22.53,7.755l-9.9,-23.579l-20.52,0.664l-8.63,-17.057l-13.38,3.255l-2.29,-9.405l20.85,-5.069Z" style="fill:#f7cc7f;fill-rule:nonzero;"/><path d="M1607.02,879.605l19.1,7.76l15.4,-14.32l20.8,10.22l11.7,-20.31l24.029,10.52l13.081,-17.37l24.77,6.34l-2.4,9.37l-18.52,-4.73l-13.8,18.33l-23.1,-10.11l-11.9,20.65l-22.95,-11.28l-15.04,13.98l-17.7,-7.19l-7.96,11.25l-7.9,-5.59l12.39,-17.52Z" style="fill:#50bfa5;fill-rule:nonzero;"/></g></g></svg>