<?xml version="1.0" encoding="UTF-8" standalone="no"?><!DOCTYPE svg PUBLIC "-//W3C//DTD SVG 1.1//EN" "http://www.w3.org/Graphics/SVG/1.1/DTD/svg11.dtd"><svg width="100%" height="100%" viewBox="0 0 2600 2000" version="1.1" xmlns="http://www.w3.org/2000/svg" xmlns:xlink="http://www.w3.org/1999/xlink" xml:space="preserve" xmlns:serif="http://www.serif.com/" style="fill-rule:evenodd;clip-rule:evenodd;stroke-linejoin:round;stroke-miterlimit:2;"><g><rect x="0" y="0" width="2600" height="2000" style="fill:#d4e8ff;fill-opacity:0;fill-rule:nonzero;"/><g><path d="M540.409,2000c-0,0 -296.629,-852.9 -93.974,-1040.67c135.455,-125.511 279.031,151.173 450.398,4.8c152.567,-130.311 -60.138,-458.58 194.417,-544.456c267.57,-90.262 486.77,640.729 711.28,539.656c272.43,-122.643 524.7,134.333 290.52,1040.67l-1552.64,0Z" style="fill:#e6f1fc;fill-rule:nonzero;"/><path d="M328.714,1998.58c-0.118,-0.34 -2.964,-8.54 -7.769,-23.83l11.866,-3.73c4.741,15.09 7.622,23.39 7.65,23.47l-11.747,4.09Z" style="fill:#fff;fill-rule:nonzero;"/><path d="M1144.04,170.339l-3.49,-11.939c16.59,-4.787 34.92,-5.637 51.63,-3.331l-1.73,12.317c-14.98,-2.063 -31.51,-1.338 -46.41,2.953Zm127.88,41.94c-12.17,-12.221 -24.79,-22.125 -37.51,-29.436l6.19,-10.784c13.68,7.861 27.19,18.44 40.14,31.442l-8.82,8.778Zm-196.87,18.107l-10.67,-6.397c9.61,-16.021 20.27,-29.454 31.71,-39.927l8.4,9.17c-10.55,9.663 -20.45,22.163 -29.44,37.154Zm254.08,60.659c-8.57,-15.185 -17.36,-29.136 -26.14,-41.465l10.13,-7.214c9.03,12.683 18.06,27.006 26.84,42.569l-10.83,6.11Zm-290.75,29.575l-11.97,-3.385c4.88,-17.256 10.24,-33.314 15.929,-47.726l11.571,4.567c-5.54,14.027 -10.76,29.686 -15.53,46.544Zm333.26,59.437c-6.6,-15.988 -13.32,-31.2 -19.95,-45.212l11.24,-5.323c6.72,14.201 13.52,29.606 20.21,45.787l-11.5,4.748Zm-354.03,37.109l-12.28,-2.001c2.82,-17.275 5.9,-33.832 9.16,-49.211l12.16,2.578c-3.21,15.188 -6.26,31.551 -9.04,48.634Zm388.59,55.742c-5.56,-16.359 -11.13,-32.081 -16.55,-46.731l11.66,-4.32c5.47,14.755 11.07,30.585 16.67,47.05l-11.78,4.001Zm-401.28,42.597l-12.376,-1.251c1.743,-17.243 3.642,-33.936 5.642,-49.616l12.334,1.574c-1.98,15.573 -3.87,32.158 -5.6,49.293Zm431.41,51.978c-5.13,-16.998 -9.93,-32.51 -14.67,-47.423l11.86,-3.765c4.75,14.97 9.57,30.538 14.72,47.593l-11.91,3.595Zm594.47,30.645c-15.18,-6.893 -30.1,-10.782 -45.38,-11.577l0.57,-12.425c16.87,0.866 33.35,5.132 49.98,12.688l-5.17,11.314Zm-1033.99,16.377l-12.411,-0.818c1.141,-17.302 2.366,-34.036 3.638,-49.737l12.399,1.005c-1.269,15.639 -2.488,32.31 -3.626,49.55Zm904.366,8.488l-8.29,-9.272c14.1,-12.608 28.32,-22.318 42.28,-28.86l5.28,11.263c-12.86,6.027 -26.07,15.067 -39.27,26.869Zm204.37,34.934c-11.2,-13.041 -22.79,-24.512 -34.44,-34.095l7.9,-9.608c12.2,10.038 24.31,22.016 35.98,35.6l-9.44,8.103Zm-641.25,4.966c-4.1,-14.239 -8.95,-31.048 -13.84,-47.766l11.94,-3.489c4.9,16.738 9.75,33.563 13.85,47.814l-11.95,3.441Zm-1053.38,26.228l-7.766,-9.715c14.859,-11.879 30.372,-19.881 46.108,-23.785l2.995,12.072c-13.982,3.469 -27.889,10.679 -41.337,21.428Zm129.563,0.267c-14.585,-9.913 -28.897,-16.861 -42.539,-20.649l3.328,-11.985c14.95,4.152 30.496,11.67 46.203,22.348l-6.992,10.286Zm1298.07,8.531l-10.28,-6.994c10.35,-15.219 20.13,-28.428 29.91,-40.382l9.63,7.875c-9.55,11.667 -19.12,24.588 -29.26,39.501Zm-847.26,15.903l-12.424,-0.593c0.863,-18.095 1.693,-34.347 2.537,-49.685l12.42,0.684c-0.843,15.307 -1.672,31.529 -2.533,49.594Zm1168.88,25.175c-8.12,-14.955 -16.61,-29.106 -25.24,-42.058l10.35,-6.898c8.84,13.264 17.53,27.739 25.82,43.024l-10.93,5.932Zm-1549.03,17.404c-11.404,-13.521 -22.612,-25.643 -33.31,-36.027l8.663,-8.925c10.994,10.671 22.485,23.097 34.155,36.933l-9.508,8.019Zm880.944,2.109c-4.1,-13.786 -8.55,-28.974 -14,-47.798l11.95,-3.459c5.44,18.793 9.88,33.952 13.97,47.706l-11.92,3.551Zm-1141.4,5.888l-10.763,-6.232c9.104,-15.724 18.491,-29.858 27.901,-42.01l9.834,7.615c-9.07,11.714 -18.145,25.383 -26.972,40.627Zm1436.25,17.928l-10.81,-6.141c9.26,-16.307 17.5,-30.401 25.19,-43.09l10.64,6.448c-7.63,12.587 -15.82,26.582 -25.02,42.783Zm-800.077,30.946l-12.426,-0.547c0.727,-16.508 1.441,-33.122 2.173,-49.741l12.425,0.547c-0.731,16.618 -1.445,33.234 -2.172,49.741Zm1214.15,15.251c-6.06,-15.744 -12.45,-31.04 -19,-45.46l11.33,-5.138c6.64,14.639 13.13,30.158 19.28,46.127l-11.61,4.471Zm-1530.66,6.963c-10.094,-14.771 -19.47,-27.966 -28.663,-40.34l9.984,-7.417c9.292,12.505 18.761,25.832 28.948,40.739l-10.269,7.018Zm-361.937,17.672l-11.544,-4.629c6.182,-15.407 12.918,-31.022 19.912,-45.871l11.252,5.3c-6.891,14.63 -13.528,30.017 -19.62,45.2Zm1213.98,0.454c-5.01,-14.315 -10.14,-29.826 -15.7,-47.419l11.86,-3.748c5.52,17.472 10.62,32.866 15.58,47.061l-11.74,4.106Zm215.96,15.544l-10.81,-6.154c7.93,-13.934 15.9,-28.281 24.26,-43.349l10.88,6.038c-8.38,15.098 -16.36,29.472 -24.33,43.465Zm-756.422,43.683l-12.416,-0.733c0.876,-14.824 1.741,-31.07 2.644,-49.667l12.423,0.603c-0.905,18.641 -1.772,34.93 -2.651,49.797Zm-257.446,5.832c-10.33,-16.396 -18.815,-29.702 -26.703,-41.877l10.438,-6.763c7.918,12.219 16.43,25.569 26.789,42.011l-10.524,6.629Zm1507.58,3.53c-4.59,-16.14 -9.46,-32.025 -14.47,-47.212l11.81,-3.899c5.07,15.351 9.99,31.404 14.62,47.711l-11.96,3.4Zm-670.3,23.831c-7.16,-12.752 -14.24,-27.654 -21.65,-45.557l11.49,-4.758c7.22,17.443 14.09,31.91 21.01,44.227l-10.85,6.088Zm-1285.25,0.455l-11.955,-3.431c4.625,-16.112 9.655,-32.149 14.948,-47.666l11.772,4.015c-5.228,15.325 -10.195,31.166 -14.765,47.082Zm1407.71,7.16l-9.76,-7.7c8.51,-10.804 17.62,-24.009 27.85,-40.366l10.55,6.593c-10.47,16.744 -19.84,30.311 -28.64,41.473Zm-62.87,43.096c-9.5,-0 -18.76,-3.341 -27.54,-9.931l7.47,-9.948c12.95,9.69 25.32,9.626 39.19,1.578l6.26,10.744c-8.59,5.015 -17.14,7.557 -25.38,7.557Zm-843.787,6.137c-9.236,-14.368 -18.659,-29.335 -26.658,-42.081l10.535,-6.612c7.982,12.718 17.382,27.648 26.585,41.962l-10.462,6.731Zm196.255,9.6l-12.357,-1.42c1.703,-14.868 3.232,-31.02 4.676,-49.378l12.399,0.976c-1.455,18.505 -2.998,34.801 -4.718,49.822Zm1281.79,5.71c-3.44,-16.34 -7.12,-32.562 -10.95,-48.212l12.08,-2.957c3.86,15.782 7.58,32.137 11.04,48.609l-12.17,2.56Zm-2002,24.33l-12.212,-2.359c3.177,-16.451 6.709,-32.871 10.497,-48.801l12.101,2.879c-3.748,15.751 -7.243,32.001 -10.386,48.281Zm580.995,42.53c-9.067,-11.54 -18.717,-24.8 -29.502,-40.53l10.258,-7.03c10.632,15.51 20.126,28.55 29.025,39.88l-9.781,7.68Zm118.653,26.27l-11.535,-4.66c4.755,-11.79 8.996,-27.52 12.605,-46.75l12.224,2.3c-3.813,20.31 -8.161,36.38 -13.294,49.11Zm1319.89,4.23c-2.5,-16.47 -5.22,-32.89 -8.09,-48.81l12.25,-2.2c2.88,16.03 5.62,32.56 8.14,49.14l-12.3,1.87Zm-2034.42,24.64l-12.358,-1.4c1.896,-16.64 4.103,-33.27 6.56,-49.45l12.297,1.87c-2.433,16.02 -4.62,32.5 -6.499,48.98Zm676.053,7.14c-18.014,-1.25 -29.738,-10.33 -46.274,-24.62l8.414,-9.16c14.136,12.08 23.826,20.23 38.38,21.34l0.365,12.43c-0.294,0.01 -0.589,0.01 -0.885,0.01Zm1370.89,66.42c-1.72,-16.55 -3.63,-33.09 -5.68,-49.18l12.34,-1.57c2.06,16.18 3.98,32.82 5.71,49.46l-12.37,1.29Zm-2054.76,25l-12.425,-0.58c0.773,-16.7 1.818,-33.43 3.105,-49.75l12.4,0.98c-1.277,16.18 -2.313,32.78 -3.08,49.35Zm2062.97,73.7c-1.05,-16.57 -2.26,-33.18 -3.6,-49.4l12.39,-1.03c1.35,16.3 2.57,33 3.62,49.64l-12.41,0.79Zm-2077.01,25.35c-0.211,-16.6 -0.19,-33.29 0.073,-49.83l12.436,0.2c-0.261,16.42 -0.282,32.99 -0.072,49.47l-12.437,0.16Zm2081.43,73.61c-0.45,-16.58 -1.04,-33.24 -1.77,-49.5l12.43,-0.56c0.73,16.34 1.33,33.07 1.78,49.73l-12.44,0.33Zm-2077.51,25.95c-1.083,-16.65 -1.96,-33.39 -2.607,-49.76l12.428,-0.49c0.643,16.26 1.515,32.9 2.591,49.44l-12.412,0.81Zm2091.03,73.21l-12.44,-0.06c0.08,-16.51 0.04,-33.12 -0.14,-49.56l12.44,-0.13c0.18,16.51 0.22,33.18 0.14,49.75Zm-2082.19,26.01c-1.861,-16.56 -3.543,-33.23 -5,-49.56l12.388,-1.1c1.449,16.23 3.121,32.81 4.972,49.27l-12.36,1.39Zm2080.22,73.46l-12.43,-0.43c0.56,-16.55 1.01,-33.22 1.34,-49.55l12.43,0.25c-0.32,16.39 -0.77,33.12 -1.34,49.73Zm-2066.94,25.24c-2.565,-16.42 -4.977,-33 -7.169,-49.28l12.327,-1.66c2.18,16.2 4.579,32.69 7.131,49.02l-12.289,1.92Zm2062.21,74.11l-12.42,-0.76c1.01,-16.58 1.91,-33.23 2.69,-49.49l12.42,0.59c-0.78,16.32 -1.68,33.02 -2.69,49.66Zm-2044.84,23.95c-3.215,-16.25 -6.303,-32.71 -9.18,-48.94l12.247,-2.17c2.863,16.15 5.936,32.53 9.134,48.69l-12.201,2.42Zm2037.58,75.24l-12.4,-1.06c1.41,-16.48 2.73,-33.11 3.93,-49.42l12.4,0.91c-1.2,16.36 -2.52,33.04 -3.93,49.57Zm-2016.33,22.05c-3.836,-16.04 -7.573,-32.37 -11.106,-48.54l12.151,-2.66c3.516,16.1 7.235,32.35 11.052,48.3l-12.097,2.9Zm2006.73,76.93l-12.37,-1.34c1.79,-16.48 3.49,-33.08 5.07,-49.32l12.38,1.2c-1.58,16.29 -3.29,32.93 -5.08,49.46Zm-1981.55,19.45c-4.435,-15.58 -8.841,-31.76 -13.097,-48.06l12.035,-3.14c4.233,16.22 8.615,32.3 13.025,47.8l-11.963,3.4Z" style="fill:#fff;fill-rule:nonzero;"/><path d="M2279.57,1982.03l-12.34,-1.54c1.01,-8.15 2.02,-16.45 3,-24.66l12.35,1.47c-0.98,8.24 -1.99,16.56 -3.01,24.73Z" style="fill:#fff;fill-rule:nonzero;"/><path d="M1355.4,1094.95c-12.46,-4.97 -25.98,-8.62 -39.45,-11.16l-0,-0.41c-1.87,-0.12 -3.73,-0.21 -5.57,-0.29l0.52,-12.43c5.56,0.21 11.86,0.75 17.49,1.24l0,1.78c10.86,2.46 21.46,5.71 31.57,9.7l-4.56,11.57Zm-135.95,10.34l-5.94,-10.92c14.89,-8.1 30.84,-14.31 47.4,-18.46l3.03,12.07c-15.55,3.89 -30.52,9.72 -44.49,17.31Zm214.32,44.68c-11.33,-12.31 -23.48,-23.1 -36.13,-32.08l7.19,-10.14c13.37,9.48 26.18,20.85 38.09,33.8l-9.15,8.42Zm-286.01,18.89l-9.9,-7.52c10.68,-14.07 22.19,-26.68 34.2,-37.48l8.32,9.24c-11.43,10.29 -22.41,22.32 -32.62,35.76Zm340.23,62.07c-7.74,-15.35 -15.95,-29.65 -24.41,-42.48l10.38,-6.85c8.73,13.24 17.19,27.95 25.14,43.74l-11.11,5.59Zm-388.42,23l-11.42,-4.92c6.96,-16.16 14.42,-31.39 22.17,-45.27l10.85,6.07c-7.54,13.5 -14.81,28.35 -21.6,44.12Zm425.63,68.25c-5.52,-16.42 -11.24,-32.02 -17.02,-46.35l11.53,-4.66c5.87,14.57 11.69,30.4 17.28,47.06l-11.79,3.95Zm-458,25.06l-11.97,-3.36c4.73,-16.81 9.73,-32.94 14.88,-47.93l11.77,4.04c-5.08,14.77 -10.01,30.67 -14.68,47.25Zm485.74,70.05c-4.46,-17.26 -8.73,-32.91 -13.04,-47.84l11.94,-3.45c4.36,15.04 8.66,30.8 13.14,48.18l-12.04,3.11Zm-508.741,26.46l-12.189,-2.49c3.569,-17.46 7.079,-33.45 10.73,-48.89l12.1,2.86c-3.62,15.31 -7.1,31.18 -10.641,48.52Zm-389.79,15.59l-8.354,-9.21c13.669,-12.86 34.374,-17.12 51.264,-14.87l-1.725,12.32c-14.011,-1.7 -29.95,1.4 -41.185,11.76Zm1225.38,8.03l-10.18,-7.14c6.18,-8.76 10.75,-14.23 15.82,-18.65c10.58,-4.18 20.77,-6.29 30.67,-5.97l-0.41,12.43c-16.18,-0.12 -26.15,2.84 -35.9,19.33Zm-1114.16,39.25c-10.653,-16.02 -20.58,-28.3 -30.346,-37.53l8.546,-9.04c10.458,9.89 20.976,22.87 32.156,39.68l-10.356,6.89Zm1211.28,3.12c-7.48,-17.84 -15.24,-31.36 -23.69,-41.33l9.48,-8.05c9.3,10.96 17.7,25.54 25.68,44.57l-11.47,4.81Zm-403.39,4.24c-3,-19.33 -5.76,-34.78 -8.71,-48.65l12.17,-2.58c2.99,14.09 5.8,29.77 8.83,49.33l-12.29,1.9Zm-547.42,27.66l-12.26,-2.11c2.5,-14.44 5.48,-31.57 8.71,-49.18l12.23,2.24c-3.211,17.55 -6.191,34.65 -8.68,49.05Zm-414.539,2.81l-11.868,-3.72c5.921,-18.89 11.681,-34.4 17.607,-47.41l11.319,5.16c-5.711,12.54 -11.291,27.58 -17.058,45.97Zm1218.36,8.44l-10.91,-5.96c8.39,-15.37 16.56,-30.27 24.2,-43.72l10.82,6.15c-7.6,13.36 -15.74,28.22 -24.11,43.53Zm-1016.71,40.3c-7.226,-13.79 -14.848,-28.74 -22.655,-44.43l11.134,-5.54c7.77,15.61 15.353,30.48 22.539,44.2l-11.018,5.77Zm1192.75,10.85c-4.9,-19.42 -9,-34.64 -12.93,-47.88l11.93,-3.53c3.97,13.41 8.12,28.78 13.06,48.38l-12.06,3.03Zm-418.23,8.46c-2.52,-16.4 -4.85,-33.14 -7.11,-49.35l12.32,-1.72c2.25,16.17 4.58,32.87 7.08,49.19l-12.29,1.88Zm-579.28,27.5l-12.197,-2.45c2.718,-13.55 5.517,-28.63 9.087,-48.89l12.25,2.15c-3.59,20.37 -6.4,35.54 -9.14,49.19Zm772.68,0.06l-10.72,-6.32c7.4,-12.55 15.46,-26.66 24.63,-43.16l10.87,6.05c-9.22,16.58 -17.33,30.79 -24.78,43.43Zm-1195.44,0.24l-12.057,-3.05c4.041,-15.94 8.202,-32.51 12.365,-48.31l12.028,3.17c-4.146,15.73 -8.307,32.3 -12.336,48.19Zm276.94,39.8c-8.025,-12.64 -16.642,-27.11 -25.612,-43.02l10.834,-6.11c8.863,15.72 17.368,30 25.278,42.46l-10.5,6.67Zm1167.82,20.77c-4.68,-16.93 -8.97,-33.99 -12.55,-48.45l12.08,-2.99c3.55,14.38 7.81,31.33 12.46,48.12l-11.99,3.32Zm-422,10c-5.32,-15.89 -8.33,-30.56 -12.18,-49.06l12.2,-2.43c3.74,17.94 6.63,32.13 11.75,47.47l-11.77,4.02Zm116.48,12.59l-9.58,-7.92c9.07,-10.97 18.54,-23.96 28.95,-39.72l10.38,6.85c-10.66,16.14 -20.39,29.48 -29.75,40.79Zm658.86,10.75c-13.05,-8.51 -29.03,-11.11 -43.48,-9.21l-1.56,-12.34c17.26,-2.27 36.14,0.97 51.6,10.98l-6.56,10.57Zm-1825.09,2.47l-11.804,-3.92c4.555,-13.72 9.192,-29.23 14.174,-47.42l11.997,3.29c-5.042,18.4 -9.742,34.12 -14.367,48.05Zm419.988,0.18l-10.699,-6.35c6.058,-10.21 11.668,-24.87 17.151,-44.8l11.992,3.3c-5.78,21.01 -11.814,36.66 -18.444,47.85Zm-673.932,18c-14.013,-16.06 -25.113,-24.84 -35.994,-28.46l3.924,-11.8c16.798,5.58 30.971,20.08 41.443,32.08l-9.373,8.18Zm625.68,1.24c-11.68,-5.49 -24.368,-16.87 -38.793,-34.79l9.69,-7.8c13.028,16.19 24.599,26.73 34.39,31.33l-5.287,11.26Zm-740.889,3.06l-9.757,-7.71c12.401,-15.69 25.862,-26.92 40.008,-33.39l5.173,11.31c-12.338,5.64 -24.256,15.66 -35.424,29.79Zm1470.98,8.22c-9.57,0 -18.42,-3.7 -26.31,-10.99l8.45,-9.13c11.95,10.98 24.21,9.25 38.06,0.87l6.53,10.59c-9.33,5.75 -18.32,8.66 -26.73,8.66Zm611.28,17.59l-10.21,-7.11c9.75,-14.02 19.36,-28.85 30.55,-40.44l8.96,8.62c-10.42,10.78 -19.95,25.5 -29.3,38.93Zm-206.631,10.54c-6.979,-13.22 -13.479,-28.47 -19.879,-46.63l11.73,-4.13c6.19,17.57 12.46,32.28 19.149,44.95l-11,5.81Zm375.171,14.44c-7.37,-16.43 -15.28,-30.73 -23.51,-42.51l10.2,-7.12c8.67,12.42 16.97,27.4 24.66,44.54l-11.35,5.09Zm-1926.68,17.55l-9.488,-8.04c8.844,-10.44 17.005,-23.83 24.952,-40.94l11.281,5.24c-8.423,18.14 -17.172,32.44 -26.745,43.74Zm-142.478,2.64c-14.059,-11.69 -26.189,-25.78 -35.187,-36.75l9.616,-7.89c8.648,10.54 20.274,24.06 33.526,35.08l-7.955,9.56Zm-225.54,15.69l-11.741,-4.1c5.992,-17.15 12.462,-32.87 19.228,-46.74l11.178,5.46c-6.553,13.43 -12.832,28.7 -18.665,45.38Zm2048.77,4.46l-4.7,-11.52c13.2,-5.58 29.09,-13.62 40.9,-24.09l8.2,9.36c-12.75,11.32 -30.03,20.21 -44.4,26.25Zm-1751.42,7.88c-8.888,-0 -17.658,-1.13 -26.063,-3.35l3.178,-12.03c15.182,4.01 30.547,3.74 46.251,0.24l2.713,12.14c-8.899,1.99 -17.673,3 -26.079,3Zm1700.01,1.12c-17.44,-1.74 -33.39,-9.2 -47.41,-22.17l8.45,-9.13c12.16,11.25 25.3,17.44 40.19,18.92l-1.23,12.38Zm328.38,44.11c-4.16,-16.76 -8.72,-32.75 -13.53,-47.51l11.82,-3.86c4.91,15.04 9.55,31.32 13.78,48.37l-12.07,3Zm-2351.34,37.88l-12.189,-2.47c3.417,-16.85 7.247,-33.31 11.385,-48.93l12.023,3.19c-4.075,15.38 -7.85,31.6 -11.219,48.21Z" style="fill:#d4e8ff;fill-rule:nonzero;"/><path d="M2284.8,1880.95c-22.07,-3.35 -45.59,-0.64 -59.36,5.22c-290.73,179.65 -216.77,-151.56 -383.83,-122.32c-71.25,3.91 -147.36,138.66 -226.62,130.93c-21.11,-6.82 -29.82,-21.24 -40.33,-46.08c-37.95,-156.46 -131.26,-233.33 -254.27,-242.11l0,-0.47c-13.79,-0.55 -26.99,-0.55 -40.78,-0l-0,0.47c-123.01,8.78 -216.32,85.65 -254.271,242.11c-9.119,23.46 -20.149,36.98 -32.618,43.19c-80.25,29.93 -181.159,-164.06 -280.999,-127.89c-79.429,20.05 -73.819,172.53 -188.86,172.53c-111.315,4.01 -116.877,-63.75 -199.697,-56.48c-79.397,-1.51 -127.526,117.5 -123.42,119.95l2200.51,-0c0,-0 -26.8,-106.07 -115.46,-119.05Z" style="fill:#d4e8ff;fill-rule:nonzero;"/><path d="M1672.73,1151.02l-186.36,157.45c-0,-0 38.88,78.61 104.24,157.46l160.99,-135.97c-0,0 -10.82,-97.26 -78.87,-178.94Z" style="fill:#f99370;fill-rule:nonzero;"/><path d="M927.268,1151.02l186.362,157.45c0,-0 -38.88,78.61 -104.24,157.46l-160.993,-135.97c-0,0 10.824,-97.26 78.871,-178.94Z" style="fill:#f99370;fill-rule:nonzero;"/><path d="M1672.73,1356.98l-372.73,96.3l0,-575.08l372.73,-96.299l-0,575.079Z" style="fill:#1d3f70;fill-rule:nonzero;"/><path d="M1300,1453.28l-372.732,-96.3l0,-575.079l372.732,96.299l0,575.08Z" style="fill:#1d3f70;fill-rule:nonzero;"/><path d="M1626.52,1324.2l-326.52,84.36l0,-561.559l326.52,-84.359l0,561.558Z" style="fill:#fee;fill-rule:nonzero;"/><path d="M1580.47,1056.83l-156.81,40.51l0,-234.137l156.81,-40.515l-0,234.142Z" style="fill:#ffdcdc;fill-rule:nonzero;"/><path d="M1384.29,830.531l0,276.979l-10.39,-7.88l-17.94,-13.63l-17.94,22.97l-10.39,13.3l0,-281.156c0,-3.572 2.41,-6.693 5.88,-7.588l4.51,-1.165l35.88,-9.264l0.59,-0.154c4.97,-1.281 9.8,2.465 9.8,7.588Z" style="fill:#dd4a43;fill-rule:nonzero;"/><path d="M1373.9,823.097l0,276.533l-17.94,-13.63l-17.94,22.97l0,-276.609l35.88,-9.264Z" style="fill:#ce3932;fill-rule:nonzero;"/><path d="M1626.52,1324.2l31.13,23.43l0,-561.832l-31.13,-23.156l0,561.558Z" style="fill:#ffdcdc;fill-rule:nonzero;"/><path d="M1300,1440.03l357.65,-92.4l-31.13,-23.43l-326.52,84.36l0,31.47Z" style="fill:#ffdcdc;fill-rule:nonzero;"/><path d="M1300,1408.56l-326.52,-84.36l-0,-561.558l326.52,84.359l0,561.559Z" style="fill:#fee;fill-rule:nonzero;"/><path d="M973.48,1324.2l-31.13,23.43l-0,-561.832l31.13,-23.156l-0,561.558Z" style="fill:#ffdcdc;fill-rule:nonzero;"/><path d="M1262.15,888.834c-0.4,-0 -0.8,-0.049 -1.2,-0.154l-156.72,-40.489c-2.57,-0.665 -4.12,-3.291 -3.46,-5.866c0.67,-2.575 3.29,-4.121 5.87,-3.457l156.71,40.489c2.58,0.665 4.13,3.291 3.46,5.866c-0.56,2.171 -2.51,3.611 -4.66,3.611Z" style="fill:#fcb4b4;fill-rule:nonzero;"/><path d="M1070.03,839.197c-0.4,0 -0.8,-0.05 -1.21,-0.154l-64.67,-16.708c-2.57,-0.665 -4.12,-3.291 -3.45,-5.866c0.66,-2.574 3.29,-4.122 5.86,-3.457l64.67,16.708c2.57,0.665 4.12,3.291 3.46,5.866c-0.56,2.17 -2.52,3.611 -4.66,3.611Z" style="fill:#fcb4b4;fill-rule:nonzero;"/><path d="M1262.15,935.676c-0.4,0 -0.8,-0.05 -1.2,-0.154l-75.49,-19.503c-2.58,-0.665 -4.12,-3.291 -3.46,-5.866c0.67,-2.575 3.29,-4.119 5.87,-3.458l75.48,19.504c2.58,0.665 4.13,3.291 3.46,5.866c-0.56,2.17 -2.51,3.611 -4.66,3.611Z" style="fill:#fcb4b4;fill-rule:nonzero;"/><path d="M1163.73,910.248c-0.4,0 -0.81,-0.05 -1.21,-0.154l-158.37,-40.917c-2.57,-0.665 -4.12,-3.291 -3.45,-5.866c0.66,-2.575 3.29,-4.119 5.86,-3.457l158.37,40.916c2.57,0.665 4.12,3.292 3.46,5.866c-0.56,2.171 -2.52,3.612 -4.66,3.612Z" style="fill:#fcb4b4;fill-rule:nonzero;"/><path d="M1262.15,982.518c-0.4,0 -0.8,-0.05 -1.2,-0.154l-62.88,-16.245c-2.57,-0.665 -4.12,-3.291 -3.46,-5.866c0.67,-2.574 3.29,-4.123 5.87,-3.457l62.87,16.245c2.58,0.665 4.13,3.291 3.46,5.866c-0.56,2.17 -2.51,3.611 -4.66,3.611Z" style="fill:#fcb4b4;fill-rule:nonzero;"/><path d="M1171.72,959.154c-0.4,0 -0.8,-0.05 -1.21,-0.154l-94.86,-24.507c-2.57,-0.666 -4.12,-3.292 -3.45,-5.867c0.66,-2.575 3.29,-4.12 5.86,-3.458l94.86,24.508c2.58,0.665 4.12,3.292 3.46,5.866c-0.56,2.171 -2.52,3.612 -4.66,3.612Z" style="fill:#fcb4b4;fill-rule:nonzero;"/><path d="M1052.63,928.385c-0.4,0 -0.81,-0.05 -1.21,-0.154l-47.27,-12.212c-2.57,-0.665 -4.12,-3.291 -3.45,-5.866c0.66,-2.575 3.29,-4.122 5.86,-3.457l47.27,12.212c2.57,0.665 4.12,3.291 3.46,5.866c-0.56,2.17 -2.52,3.611 -4.66,3.611Z" style="fill:#fcb4b4;fill-rule:nonzero;"/><path d="M1262.15,1029.36c-0.4,-0 -0.8,-0.049 -1.2,-0.15l-104.05,-26.88c-2.57,-0.67 -4.12,-3.297 -3.46,-5.872c0.67,-2.574 3.29,-4.119 5.87,-3.457l104.04,26.879c2.58,0.67 4.13,3.29 3.46,5.87c-0.56,2.171 -2.51,3.61 -4.66,3.61Z" style="fill:#fcb4b4;fill-rule:nonzero;"/><path d="M1113.64,990.989c-0.4,0 -0.81,-0.05 -1.21,-0.154l-108.28,-27.974c-2.57,-0.665 -4.12,-3.292 -3.45,-5.866c0.66,-2.575 3.29,-4.122 5.86,-3.458l108.28,27.974c2.57,0.666 4.12,3.292 3.46,5.867c-0.56,2.17 -2.52,3.611 -4.66,3.611Z" style="fill:#fcb4b4;fill-rule:nonzero;"/><path d="M1262.15,1076.2c-0.4,0 -0.8,-0.05 -1.2,-0.15l-256.8,-66.35c-2.57,-0.66 -4.12,-3.29 -3.45,-5.86c0.66,-2.58 3.29,-4.128 5.86,-3.46l256.79,66.34c2.58,0.67 4.13,3.3 3.46,5.87c-0.56,2.17 -2.51,3.61 -4.66,3.61Z" style="fill:#fcb4b4;fill-rule:nonzero;"/><path d="M1262.15,1123.04c-0.4,-0 -0.8,-0.05 -1.2,-0.15l-102.87,-26.58c-2.58,-0.66 -4.13,-3.29 -3.46,-5.86c0.66,-2.58 3.29,-4.13 5.87,-3.46l102.86,26.58c2.58,0.66 4.13,3.29 3.46,5.86c-0.56,2.17 -2.51,3.61 -4.66,3.61Z" style="fill:#fcb4b4;fill-rule:nonzero;"/><path d="M1127.08,1088.15c-0.39,0 -0.8,-0.05 -1.2,-0.16l-121.73,-31.45c-2.57,-0.66 -4.12,-3.29 -3.45,-5.86c0.66,-2.58 3.29,-4.129 5.86,-3.46l121.73,31.45c2.57,0.66 4.12,3.29 3.45,5.87c-0.56,2.17 -2.51,3.61 -4.66,3.61Z" style="fill:#fcb4b4;fill-rule:nonzero;"/><path d="M1262.15,1169.89c-0.4,0 -0.8,-0.05 -1.2,-0.16l-256.8,-66.34c-2.57,-0.67 -4.12,-3.3 -3.45,-5.87c0.66,-2.57 3.29,-4.12 5.86,-3.46l256.79,66.35c2.58,0.66 4.13,3.29 3.46,5.86c-0.56,2.17 -2.51,3.62 -4.66,3.62Z" style="fill:#fcb4b4;fill-rule:nonzero;"/><path d="M1262.15,1216.73c-0.4,-0 -0.8,-0.05 -1.2,-0.16l-137.11,-35.42c-2.57,-0.66 -4.12,-3.29 -3.45,-5.86c0.66,-2.58 3.29,-4.13 5.86,-3.46l137.1,35.42c2.58,0.66 4.13,3.29 3.46,5.87c-0.56,2.17 -2.51,3.61 -4.66,3.61Z" style="fill:#fcb4b4;fill-rule:nonzero;"/><path d="M1087.44,1171.59c-0.39,0 -0.8,-0.05 -1.2,-0.15l-82.09,-21.21c-2.57,-0.67 -4.12,-3.29 -3.45,-5.87c0.66,-2.57 3.29,-4.12 5.86,-3.46l82.09,21.21c2.57,0.67 4.12,3.29 3.45,5.87c-0.56,2.17 -2.51,3.61 -4.66,3.61Z" style="fill:#fcb4b4;fill-rule:nonzero;"/><path d="M1262.15,1263.57c-0.4,0 -0.8,-0.05 -1.2,-0.15l-71.56,-18.49c-2.57,-0.67 -4.12,-3.29 -3.45,-5.87c0.66,-2.57 3.29,-4.12 5.86,-3.46l71.55,18.49c2.58,0.67 4.13,3.29 3.46,5.87c-0.56,2.17 -2.51,3.61 -4.66,3.61Z" style="fill:#fcb4b4;fill-rule:nonzero;"/><path d="M1161.26,1237.5c-0.4,0 -0.8,-0.05 -1.21,-0.15l-148.96,-38.49c-2.58,-0.66 -4.12,-3.29 -3.46,-5.86c0.67,-2.58 3.29,-4.13 5.87,-3.46l148.96,38.48c2.58,0.67 4.12,3.3 3.46,5.87c-0.56,2.17 -2.52,3.61 -4.66,3.61Z" style="fill:#fcb4b4;fill-rule:nonzero;"/><path d="M1262.15,1310.41c-0.4,-0 -0.8,-0.05 -1.2,-0.15l-63.82,-16.49c-2.57,-0.66 -4.12,-3.29 -3.45,-5.87c0.66,-2.57 3.29,-4.12 5.86,-3.45l63.81,16.48c2.58,0.67 4.13,3.29 3.46,5.87c-0.56,2.17 -2.51,3.61 -4.66,3.61Z" style="fill:#fcb4b4;fill-rule:nonzero;"/><path d="M1176.92,1288.39c-0.4,0 -0.8,-0.05 -1.21,-0.15l-84.81,-21.91c-2.57,-0.67 -4.12,-3.3 -3.45,-5.87c0.66,-2.58 3.29,-4.12 5.86,-3.46l84.81,21.91c2.58,0.67 4.12,3.29 3.46,5.87c-0.56,2.17 -2.52,3.61 -4.66,3.61Z" style="fill:#fcb4b4;fill-rule:nonzero;"/><path d="M1067.62,1260.15c-0.4,0 -0.8,-0.05 -1.21,-0.15l-62.26,-16.09c-2.57,-0.66 -4.12,-3.29 -3.45,-5.86c0.66,-2.58 3.29,-4.13 5.86,-3.46l62.26,16.08c2.58,0.67 4.13,3.3 3.46,5.87c-0.56,2.17 -2.52,3.61 -4.66,3.61Z" style="fill:#fcb4b4;fill-rule:nonzero;"/><path d="M1262.15,1357.25c-0.4,0 -0.8,-0.05 -1.2,-0.15l-256.8,-66.35c-2.57,-0.66 -4.12,-3.29 -3.45,-5.86c0.66,-2.58 3.29,-4.13 5.86,-3.46l256.79,66.34c2.58,0.67 4.13,3.3 3.46,5.87c-0.56,2.17 -2.51,3.61 -4.66,3.61Z" style="fill:#fcb4b4;fill-rule:nonzero;"/><path d="M1334.86,1169.89c-2.14,0 -4.1,-1.45 -4.66,-3.62c-0.66,-2.57 0.88,-5.2 3.46,-5.86l58.16,-15.03c2.57,-0.67 5.2,0.88 5.87,3.46c0.66,2.57 -0.89,5.2 -3.46,5.87l-58.16,15.02c-0.4,0.11 -0.81,0.16 -1.21,0.16Z" style="fill:#fcb4b4;fill-rule:nonzero;"/><path d="M1423.65,1146.95c-2.14,0 -4.09,-1.45 -4.65,-3.62c-0.67,-2.57 0.88,-5.2 3.45,-5.86l168,-43.41c2.57,-0.66 5.2,0.89 5.87,3.46c0.66,2.57 -0.88,5.2 -3.46,5.87l-168,43.4c-0.4,0.11 -0.81,0.16 -1.21,0.16Z" style="fill:#fcb4b4;fill-rule:nonzero;"/><path d="M1334.86,1216.73c-2.14,-0 -4.1,-1.44 -4.66,-3.61c-0.66,-2.58 0.88,-5.21 3.46,-5.87l143.53,-37.08c2.57,-0.67 5.2,0.88 5.87,3.45c0.66,2.58 -0.88,5.21 -3.46,5.87l-143.53,37.08c-0.4,0.11 -0.81,0.16 -1.21,0.16Z" style="fill:#fcb4b4;fill-rule:nonzero;"/><path d="M1516.17,1169.89c-2.15,0 -4.1,-1.45 -4.66,-3.62c-0.67,-2.57 0.88,-5.2 3.45,-5.86l75.49,-19.51c2.57,-0.66 5.2,0.89 5.87,3.46c0.66,2.58 -0.88,5.2 -3.46,5.87l-75.49,19.5c-0.4,0.11 -0.81,0.16 -1.2,0.16Z" style="fill:#fcb4b4;fill-rule:nonzero;"/><path d="M1334.86,1263.57c-2.14,0 -4.1,-1.44 -4.66,-3.61c-0.66,-2.58 0.88,-5.2 3.46,-5.87l250.86,-64.81c2.58,-0.67 5.2,0.88 5.87,3.46c0.67,2.57 -0.88,5.2 -3.46,5.86l-250.86,64.82c-0.4,0.1 -0.81,0.15 -1.21,0.15Z" style="fill:#fcb4b4;fill-rule:nonzero;"/><path d="M1334.86,1310.41c-2.14,-0 -4.1,-1.44 -4.66,-3.61c-0.66,-2.58 0.88,-5.2 3.46,-5.87l63.81,-16.48c2.57,-0.67 5.2,0.88 5.87,3.45c0.66,2.58 -0.88,5.21 -3.46,5.87l-63.81,16.49c-0.4,0.1 -0.81,0.15 -1.21,0.15Z" style="fill:#fcb4b4;fill-rule:nonzero;"/><path d="M1420.09,1288.39c-2.14,0 -4.09,-1.44 -4.66,-3.61c-0.66,-2.58 0.89,-5.2 3.46,-5.87l84.81,-21.91c2.58,-0.67 5.2,0.88 5.87,3.46c0.66,2.57 -0.88,5.2 -3.46,5.87l-84.81,21.91c-0.4,0.1 -0.81,0.15 -1.21,0.15Z" style="fill:#fcb4b4;fill-rule:nonzero;"/><path d="M1529.39,1260.15c-2.14,0 -4.1,-1.44 -4.66,-3.61c-0.66,-2.57 0.89,-5.2 3.46,-5.87l62.26,-16.08c2.57,-0.67 5.2,0.88 5.87,3.46c0.66,2.57 -0.88,5.2 -3.46,5.86l-62.26,16.09c-0.4,0.1 -0.81,0.15 -1.21,0.15Z" style="fill:#fcb4b4;fill-rule:nonzero;"/><path d="M1334.86,1357.25c-2.14,0 -4.1,-1.44 -4.66,-3.61c-0.66,-2.57 0.88,-5.2 3.46,-5.87l117.83,-30.44c2.57,-0.66 5.2,0.89 5.86,3.46c0.67,2.58 -0.88,5.2 -3.45,5.87l-117.83,30.44c-0.4,0.1 -0.81,0.15 -1.21,0.15Z" style="fill:#fcb4b4;fill-rule:nonzero;"/><path d="M1488.54,1317.55c-2.15,-0 -4.1,-1.44 -4.66,-3.61c-0.67,-2.58 0.88,-5.2 3.46,-5.87l103.11,-26.64c2.57,-0.67 5.2,0.88 5.87,3.46c0.66,2.57 -0.88,5.2 -3.46,5.86l-103.11,26.64c-0.41,0.11 -0.81,0.16 -1.21,0.16Z" style="fill:#fcb4b4;fill-rule:nonzero;"/><path d="M1300,1440.03l-357.65,-92.4l31.13,-23.43l326.52,84.36l0,31.47Z" style="fill:#ffdcdc;fill-rule:nonzero;"/><path d="M1055.86,1205.46c-4.14,8.31 -10.32,16.57 -18.18,22.94c-3.14,2.55 -6.75,4.98 -10.341,7.17c-4.099,2.51 -8.159,4.71 -11.469,6.4c-4.42,2.25 -7.49,3.61 -7.49,3.61c0,0 -0.92,1.33 -2.46,3.68c-7.16,10.91 -27.77,43.98 -32.44,69.82c-0.35,1.95 -0.61,3.85 -0.77,5.7c-0.26,3 -0.25,5.86 0.09,8.52c1,7.9 2.2,15.62 3.54,23.11c0.86,4.75 1.77,9.4 2.73,13.95c2.9,13.79 6.23,26.61 9.59,38.09c0.01,0.04 0.02,0.08 0.03,0.11c10.07,34.43 20.44,56.8 20.69,57.36l0.01,0.01c-2.55,1.52 -2.46,80.28 -1.05,191.09c0.46,36.12 1.06,75.66 1.75,117.03c1.21,72.48 2.72,150.6 4.26,225.95l-249.89,0c5.02,-76.6 11.24,-158.51 18.86,-239.59c3.73,-39.75 7.81,-79.3 12.24,-117.93c13.84,-120.49 31.2,-231.99 52.84,-312.52c8.31,-30.91 24.62,-54.48 46.08,-74.01c9.92,-9.04 20.95,-17.21 32.79,-24.84c4.89,-3.15 9.93,-6.22 15.08,-9.2c9.98,-5.8 20.4,-11.34 31.13,-16.78c3.69,-1.88 7.42,-3.75 11.19,-5.61c8.52,-4.22 17.2,-8.42 25.97,-12.68c0,0 0.03,-0.02 0.08,-0.04c9.05,-4.39 18.19,-8.85 27.349,-13.46c1.781,-0.9 3.451,-1.62 5.02,-2.18c0.23,-0.08 0.461,-0.15 0.691,-0.23c1.59,-0.53 3.07,-0.89 4.429,-1.08c0.191,-0.03 0.381,-0.06 0.561,-0.08c15.37,-1.78 16.37,17.06 7.09,35.69Z" style="fill:#f99370;fill-rule:nonzero;"/><path d="M1048.77,1169.77c0,0 3.76,9.86 -8.35,21.8c-12.11,11.95 -20.52,13.25 -20.52,13.25c0,0 -3.7,-10.55 -9.26,-17.98c0,0 26.47,-15.57 38.13,-17.07Z" style="fill:#fcb5a7;fill-rule:nonzero;"/><path d="M1063.98,1392.3c-0,-0 -46.07,0.88 -75.291,16.26c0,-0 -4.692,-16.51 -9.619,-38.2l84.91,21.94Z" style="fill:#e57d61;fill-rule:nonzero;"/><path d="M927.268,1151.02c0,0 -21.603,58.65 -33.059,106.04c-0,-0 14.814,-14.24 33.059,-25.42l0,-80.62Z" style="fill:#e57d61;fill-rule:nonzero;"/><path d="M1056.7,2000l-362.78,0c10.04,-88.08 22.17,-175.59 36.16,-243.16c1.24,-5.97 2.52,-11.68 3.85,-17.14c15.68,-64.73 37.27,-93.67 61.63,-97.22c-0,0 88.81,40.6 212.78,14.54c0,-0 34.7,11.31 40.98,105.72c2.35,35.32 5,131.15 7.38,237.26Z" style="fill:#eb5648;fill-rule:nonzero;"/><path d="M1591.66,1657.02c1.41,-110.81 1.5,-189.57 -1.05,-191.09l0.01,-0.01c0.25,-0.56 10.62,-22.93 20.69,-57.36c0.01,-0.03 0.02,-0.07 0.03,-0.11c3.36,-11.48 6.69,-24.3 9.59,-38.09c0.96,-4.55 1.87,-9.2 2.73,-13.95c1.34,-7.49 2.54,-15.21 3.54,-23.11c0.34,-2.66 0.35,-5.52 0.09,-8.52c-0.16,-1.85 -0.42,-3.75 -0.77,-5.7c-4.67,-25.84 -25.28,-58.91 -32.44,-69.82c-1.54,-2.35 -2.46,-3.68 -2.46,-3.68c-0,0 -3.54,-1.57 -8.48,-4.13c-3.11,-1.61 -6.79,-3.61 -10.48,-5.88c-3.59,-2.19 -7.2,-4.62 -10.34,-7.17c-8.08,-6.55 -14.39,-15.1 -18.52,-23.63c-8.91,-18.4 -7.75,-36.76 7.43,-35c1.5,0.17 3.14,0.55 4.93,1.14c0.14,0.04 0.29,0.09 0.43,0.14c1.66,0.58 3.44,1.33 5.34,2.29c8.77,4.42 17.53,8.69 26.2,12.9c0.01,0.01 0.02,0.01 0.02,0.01c9.18,4.47 18.27,8.86 27.18,13.27c3.77,1.86 7.5,3.73 11.19,5.61c10.73,5.44 21.15,10.98 31.13,16.78c5.15,2.98 10.19,6.05 15.08,9.2c11.84,7.63 22.87,15.8 32.79,24.84c21.46,19.53 37.77,43.1 46.08,74.01c21.64,80.53 39,192.03 52.84,312.52c4.45,38.79 8.54,78.52 12.29,118.44c7.6,80.91 13.8,162.64 18.81,239.08l-249.89,0c1.55,-75.77 3.06,-154.36 4.28,-227.18c0.68,-40.92 1.27,-80.03 1.73,-115.8Z" style="fill:#f99370;fill-rule:nonzero;"/><path d="M1551.23,1169.77c-0,0 -3.76,9.86 8.35,21.8c12.11,11.95 20.52,13.25 20.52,13.25c-0,0 2.49,-11.14 8.05,-18.57c0,0 -25.26,-14.98 -36.92,-16.48Z" style="fill:#fcb5a7;fill-rule:nonzero;"/><path d="M1536.02,1392.3c0,-0 46.07,0.88 75.29,16.26c0,-0 4.69,-16.51 9.62,-38.2l-84.91,21.94Z" style="fill:#e57d61;fill-rule:nonzero;"/><path d="M1672.73,1151.02c-0,0 21.6,58.65 33.06,106.04c0,-0 -14.81,-14.24 -33.06,-25.42l-0,-80.62Z" style="fill:#e57d61;fill-rule:nonzero;"/><path d="M1906.08,2000l-362.78,0c2.38,-106.11 5.03,-201.94 7.38,-237.26c6.28,-94.41 40.98,-105.72 40.98,-105.72c123.97,26.06 212.78,-14.54 212.78,-14.54c24.36,3.55 45.95,32.49 61.63,97.22c1.33,5.46 2.61,11.17 3.85,17.14c13.99,67.57 26.12,155.08 36.16,243.16Z" style="fill:#eb5648;fill-rule:nonzero;"/><path d="M1300,1413.37c-2.66,-0 -4.81,-2.15 -4.81,-4.81l-0,-561.559c-0,-2.659 2.15,-4.814 4.81,-4.814c2.66,0 4.81,2.155 4.81,4.814l0,561.559c0,2.66 -2.15,4.81 -4.81,4.81Z" style="fill:#fcb4b4;fill-rule:nonzero;"/><path d="M1049.32,1762.74c-168.2,58.52 -315.393,-23.04 -315.393,-23.04c15.687,-64.73 37.278,-93.67 61.631,-97.22c-0,0 88.807,40.6 212.782,14.54c0,-0 34.7,11.31 40.98,105.72Z" style="fill:#ce3932;fill-rule:nonzero;"/><path d="M1866.07,1739.7c-152.5,79.72 -315.4,23.04 -315.4,23.04c6.29,-94.41 40.99,-105.72 40.99,-105.72c123.97,26.06 212.78,-14.54 212.78,-14.54c24.36,3.55 45.95,32.49 61.63,97.22Z" style="fill:#ce3932;fill-rule:nonzero;"/><path d="M1804.4,629.667l-193.16,-69.888l92.78,-256.425l193.16,69.888l-92.78,256.425Z" style="fill:#eb5648;fill-rule:nonzero;"/><path d="M1891.53,353.618l5.65,19.624l-92.78,256.425l-5.65,-19.624l92.78,-256.425Z" style="fill:#ce3932;fill-rule:nonzero;"/><path d="M1798.75,610.043l-188.64,-68.253l3.37,11.801l189.09,69.722l-3.82,-13.27Z" style="fill:#ffdcdc;fill-rule:nonzero;"/><path d="M1798.75,610.043l-193.16,-69.888l92.78,-256.425l193.16,69.888l-92.78,256.425Z" style="fill:#eb5648;fill-rule:nonzero;"/><path d="M1860.86,399.565c-0.26,-0 -0.52,-0.044 -0.78,-0.137c-1.18,-0.429 -1.8,-1.738 -1.37,-2.924l12.19,-33.673l-39.35,-14.234c-1.18,-0.43 -1.8,-1.738 -1.37,-2.924c0.43,-1.186 1.74,-1.8 2.93,-1.37l41.49,15.011c1.18,0.429 1.8,1.738 1.37,2.924l-12.96,35.82c-0.34,0.929 -1.22,1.507 -2.15,1.507Z" style="fill:#ce3932;fill-rule:nonzero;"/><path d="M1790.16,594.96c-0.26,-0 -0.52,-0.045 -0.77,-0.136l-32.68,-11.822c-1.18,-0.429 -1.8,-1.738 -1.37,-2.924c0.43,-1.186 1.74,-1.801 2.93,-1.37l30.52,11.045l11.88,-32.832c0.43,-1.186 1.74,-1.799 2.92,-1.37c1.19,0.429 1.8,1.738 1.38,2.924l-12.66,34.979c-0.21,0.569 -0.63,1.033 -1.18,1.29c-0.3,0.144 -0.63,0.216 -0.97,0.216Z" style="fill:#ce3932;fill-rule:nonzero;"/><path d="M1656.69,546.668c-0.26,-0 -0.52,-0.043 -0.78,-0.136l-33.39,-12.081c-0.57,-0.206 -1.03,-0.63 -1.29,-1.179c-0.25,-0.548 -0.28,-1.176 -0.08,-1.746l12.39,-34.21c0.43,-1.185 1.73,-1.798 2.92,-1.369c1.19,0.429 1.8,1.739 1.37,2.924l-11.61,32.063l31.25,11.304c1.18,0.429 1.8,1.738 1.37,2.924c-0.34,0.929 -1.22,1.506 -2.15,1.506Z" style="fill:#ce3932;fill-rule:nonzero;"/><path d="M1695.13,336.183c-0.25,-0 -0.52,-0.044 -0.77,-0.137c-1.19,-0.429 -1.8,-1.738 -1.37,-2.924l11.87,-32.793c0.43,-1.185 1.74,-1.8 2.92,-1.37l37.17,13.448c1.19,0.429 1.8,1.738 1.37,2.924c-0.43,1.186 -1.74,1.798 -2.92,1.37l-35.02,-12.671l-11.1,30.647c-0.34,0.928 -1.21,1.506 -2.15,1.506Z" style="fill:#ce3932;fill-rule:nonzero;"/><path d="M1710.63,551.761l-0.01,-0.005c-40.15,-14.526 -60.91,-58.85 -46.38,-98.993l23.31,-64.38c14.53,-40.131 58.84,-60.889 98.97,-46.368c40.14,14.524 60.91,58.837 46.38,98.978l-23.29,64.384c-14.53,40.141 -58.84,60.908 -98.98,46.384Z" style="fill:#f49f9f;fill-rule:nonzero;"/><path d="M1806.63,447.643c-0.25,-0 -0.52,-0.044 -0.77,-0.137l-103.15,-37.318c-1.18,-0.43 -1.8,-1.738 -1.37,-2.924c0.43,-1.186 1.74,-1.801 2.93,-1.37l103.14,37.318c1.19,0.429 1.8,1.738 1.37,2.924c-0.34,0.929 -1.21,1.507 -2.15,1.507Z" style="fill:#dd4a43;fill-rule:nonzero;"/><path d="M1799.36,467.736c-0.26,-0 -0.52,-0.044 -0.77,-0.136l-103.15,-37.319c-1.18,-0.429 -1.8,-1.738 -1.37,-2.924c0.43,-1.186 1.74,-1.8 2.93,-1.37l103.14,37.319c1.19,0.429 1.8,1.737 1.37,2.923c-0.34,0.93 -1.21,1.507 -2.15,1.507Z" style="fill:#dd4a43;fill-rule:nonzero;"/><path d="M1792.13,487.738c-0.26,0 -0.52,-0.044 -0.78,-0.136l-103.14,-37.319c-1.19,-0.429 -1.8,-1.738 -1.37,-2.924c0.42,-1.186 1.74,-1.799 2.92,-1.37l103.14,37.319c1.19,0.429 1.8,1.737 1.37,2.923c-0.33,0.93 -1.21,1.507 -2.14,1.507Z" style="fill:#dd4a43;fill-rule:nonzero;"/><path d="M1270.73,1870.06l145.39,-56.1l-74.47,-193.01l-145.39,56.09l74.47,193.02Z" style="fill:#092444;fill-rule:nonzero;"/><path d="M1200.23,1662.07l-3.97,14.97l74.47,193.02l3.97,-14.98l-74.47,-193.01Z" style="fill:#092444;fill-rule:nonzero;"/><path d="M1274.7,1855.08l142,-54.78l-2.37,9l-142.32,55.91l2.69,-10.13Z" style="fill:#ffdcdc;fill-rule:nonzero;"/><path d="M1274.7,1855.08l145.4,-56.09l-74.47,-193.02l-145.4,56.1l74.47,193.01Z" style="fill:#1d3f70;fill-rule:nonzero;"/><path d="M1224.19,1696.43c-0.69,-0 -1.35,-0.42 -1.62,-1.11l-10.4,-26.96c-0.34,-0.9 0.1,-1.9 0.99,-2.24l31.23,-12.05c0.9,-0.35 1.9,0.1 2.24,0.99c0.35,0.89 -0.1,1.9 -0.99,2.24l-29.61,11.43l9.78,25.34c0.34,0.89 -0.1,1.9 -1,2.24c-0.2,0.08 -0.41,0.12 -0.62,0.12Z" style="fill:#3a72aa;fill-rule:nonzero;"/><path d="M1280.94,1843.5c-0.7,0 -1.35,-0.42 -1.62,-1.1l-10.16,-26.33c-0.34,-0.89 0.1,-1.9 0.99,-2.24c0.9,-0.35 1.9,0.1 2.24,0.99l9.54,24.71l22.98,-8.86c0.88,-0.35 1.89,0.1 2.24,0.99c0.34,0.89 -0.1,1.9 -1,2.24l-24.59,9.49c-0.2,0.08 -0.42,0.11 -0.62,0.11Z" style="fill:#3a72aa;fill-rule:nonzero;"/><path d="M1381.4,1804.74c-0.69,0 -1.35,-0.42 -1.61,-1.11c-0.35,-0.89 0.1,-1.89 0.99,-2.24l23.52,-9.07l-9.32,-24.13c-0.35,-0.9 0.1,-1.9 0.99,-2.24c0.89,-0.35 1.9,0.09 2.24,0.99l9.94,25.75c0.17,0.43 0.16,0.9 -0.03,1.32c-0.19,0.42 -0.53,0.75 -0.96,0.92l-25.13,9.7c-0.21,0.08 -0.42,0.11 -0.63,0.11Z" style="fill:#3a72aa;fill-rule:nonzero;"/><path d="M1348.88,1645.7c-0.69,0 -1.35,-0.42 -1.62,-1.1l-8.9,-23.07l-26.36,10.17c-0.89,0.34 -1.9,-0.1 -2.24,-0.99c-0.35,-0.9 0.1,-1.9 0.99,-2.24l27.98,-10.8c0.88,-0.34 1.89,0.1 2.24,1l9.53,24.68c0.34,0.89 -0.1,1.89 -1,2.24c-0.2,0.08 -0.41,0.11 -0.62,0.11Z" style="fill:#3a72aa;fill-rule:nonzero;"/><path d="M1340.61,1809.47l0.01,-0.01c30.22,-11.66 45.26,-45.61 33.59,-75.82l-18.71,-48.46c-11.66,-30.21 -45.6,-45.25 -75.81,-33.59c-30.21,11.66 -45.25,45.6 -33.6,75.81l18.7,48.47c11.66,30.21 45.6,45.26 75.82,33.6Z" style="fill:#f49f9f;fill-rule:nonzero;"/><path d="M1266.09,1732.03c-0.69,-0 -1.35,-0.42 -1.62,-1.11c-0.34,-0.89 0.1,-1.9 1,-2.24l77.63,-29.95c0.89,-0.35 1.9,0.1 2.24,0.99c0.35,0.89 -0.1,1.89 -0.99,2.24l-77.64,29.95c-0.2,0.08 -0.41,0.12 -0.62,0.12Z" style="fill:#1d3f70;fill-rule:nonzero;"/><path d="M1271.93,1747.15c-0.7,-0 -1.36,-0.42 -1.62,-1.11c-0.35,-0.89 0.1,-1.89 0.99,-2.24l77.64,-29.95c0.89,-0.34 1.89,0.1 2.24,0.99c0.34,0.89 -0.1,1.9 -0.99,2.24l-77.64,29.96c-0.21,0.08 -0.42,0.11 -0.62,0.11Z" style="fill:#1d3f70;fill-rule:nonzero;"/><path d="M1277.73,1762.21c-0.69,0 -1.35,-0.42 -1.61,-1.11c-0.35,-0.89 0.1,-1.89 0.99,-2.24l77.64,-29.95c0.89,-0.35 1.89,0.09 2.24,0.99c0.34,0.89 -0.1,1.89 -0.99,2.24l-77.64,29.95c-0.21,0.08 -0.42,0.12 -0.63,0.12Z" style="fill:#1d3f70;fill-rule:nonzero;"/><path d="M1015.66,631.788l233.58,-103.765l-137.75,-310.075l-233.575,103.764l137.745,310.076Z" style="fill:#1d3f70;fill-rule:nonzero;"/><path d="M883.2,296.859l-5.285,24.853l137.745,310.076l5.29,-24.854l-137.75,-310.075Z" style="fill:#23659b;fill-rule:nonzero;"/><path d="M1020.95,606.934l229.42,-101.92l-4.45,15.527l-228.55,103.199l3.58,-16.806Z" style="fill:#ffdcdc;fill-rule:nonzero;"/><path d="M1020.95,606.934l233.57,-103.764l-137.74,-310.076l-233.58,103.765l137.75,310.075Z" style="fill:#3a72aa;fill-rule:nonzero;"/><path d="M1116.78,193.094l-233.58,103.765l137.75,310.075l233.57,-103.764l-137.74,-310.076Zm-3.65,9.463l131.93,296.971l-220.471,97.944l-131.927,-296.972l220.468,-97.943Z" style="fill:#1d3f70;fill-rule:nonzero;"/><path d="M1179.72,589.417l19.02,-8.561l-17.41,-40.474l-18.8,8.248l17.19,40.787Z" style="fill:#ce3932;fill-rule:nonzero;"/><path d="M939.516,348.617c-1.089,-0 -2.128,-0.629 -2.598,-1.688c-4.287,-9.65 -4.559,-20.391 -0.767,-30.246c3.792,-9.854 11.195,-17.642 20.845,-21.929c1.434,-0.636 3.112,0.01 3.749,1.443c0.637,1.434 -0.009,3.113 -1.443,3.75c-17.056,7.577 -24.769,27.618 -17.192,44.675c0.637,1.434 -0.009,3.113 -1.443,3.75c-0.375,0.166 -0.766,0.245 -1.151,0.245Z" style="fill:#1d3f70;fill-rule:nonzero;"/><path d="M1115.28,270.528c-1.09,-0 -2.13,-0.628 -2.6,-1.687c-7.58,-17.051 -27.62,-24.759 -44.67,-17.185c-1.44,0.637 -3.12,-0.009 -3.75,-1.443c-0.64,-1.433 0,-3.112 1.44,-3.749c19.91,-8.846 43.32,0.155 52.17,20.069c0.64,1.434 -0.01,3.113 -1.44,3.75c-0.38,0.167 -0.77,0.245 -1.15,0.245Z" style="fill:#1d3f70;fill-rule:nonzero;"/><path d="M1179.57,505.513c-1.09,-0 -2.13,-0.629 -2.6,-1.688c-0.64,-1.433 0.01,-3.112 1.44,-3.749c8.27,-3.672 14.61,-10.342 17.85,-18.781c3.25,-8.44 3.01,-17.639 -0.66,-25.902c-0.64,-1.434 0.01,-3.112 1.44,-3.749c1.44,-0.638 3.12,0.008 3.75,1.441c4.29,9.65 4.57,20.393 0.77,30.249c-3.79,9.857 -11.19,17.646 -20.84,21.934c-0.38,0.167 -0.77,0.245 -1.15,0.245Z" style="fill:#1d3f70;fill-rule:nonzero;"/><path d="M1055.94,557.002c-4.8,-0 -9.601,-0.884 -14.21,-2.658c-9.85,-3.792 -17.641,-11.195 -21.93,-20.844c-0.64,-1.434 0.01,-3.113 1.44,-3.75c1.44,-0.638 3.12,0.009 3.75,1.443c3.67,8.263 10.339,14.601 18.78,17.848c8.44,3.247 17.64,3.014 25.9,-0.657c1.43,-0.637 3.11,0.009 3.75,1.443c0.63,1.434 -0.01,3.112 -1.44,3.75c-5.14,2.28 -10.58,3.425 -16.04,3.425Z" style="fill:#1d3f70;fill-rule:nonzero;"/><path d="M1003.37,418.457c-1.09,0 -2.13,-0.629 -2.6,-1.688c-0.64,-1.434 0.01,-3.113 1.44,-3.75l124.73,-55.408c1.43,-0.637 3.11,0.009 3.75,1.443c0.63,1.434 -0.01,3.113 -1.45,3.75l-124.72,55.407c-0.37,0.167 -0.77,0.246 -1.15,0.246Z" style="fill:#1d3f70;fill-rule:nonzero;"/><path d="M1014.16,442.754c-1.09,0 -2.12,-0.629 -2.6,-1.688c-0.63,-1.433 0.01,-3.112 1.45,-3.749l124.72,-55.408c1.44,-0.636 3.11,0.009 3.75,1.443c0.64,1.434 -0.01,3.112 -1.44,3.75l-124.73,55.407c-0.37,0.167 -0.76,0.245 -1.15,0.245Z" style="fill:#1d3f70;fill-rule:nonzero;"/><path d="M2365.18,1181.49l-249.85,193.14c0,0 11.91,69.17 65.63,151.9l183.24,1.81c-0,-0 41.81,-197.92 0.98,-346.85Z" style="fill:#f99370;fill-rule:nonzero;"/><path d="M2281.34,1442.67l-408.67,-143.73l190.8,-542.5l408.66,143.724l-190.79,542.506Z" style="fill:#ce4abf;fill-rule:nonzero;"/><path d="M2459.84,858.888l12.29,41.276l-190.79,542.506l-12.29,-41.28l190.79,-542.502Z" style="fill:#a523a2;fill-rule:nonzero;"/><path d="M2117.62,1385.09c0,0 58.4,31.96 91.05,63.55l35.08,-19.19l-126.13,-44.36Z" style="fill:#e57d61;fill-rule:nonzero;"/><path d="M2269.05,1401.39l-394.73,-138.82l2.96,23.28l391.76,140.47l0.01,-24.93Z" style="fill:#ffdcdc;fill-rule:nonzero;"/><path d="M2269.05,1401.39l-408.67,-143.72l190.799,-542.505l408.661,143.723l-190.79,542.502Z" style="fill:#ce4abf;fill-rule:nonzero;"/><path d="M2051.18,715.165l-190.799,542.505l408.67,143.72l190.79,-542.502l-408.661,-143.723Zm7.431,15.495l385.74,135.66l-182.74,519.58l-385.73,-135.66l182.73,-519.58Z" style="fill:#f49f9f;fill-rule:nonzero;"/><path d="M1998.43,1393.27l-33.29,-11.89l23.94,-70.74l32.88,11.39l-23.53,71.24Z" style="fill:#6b0964;fill-rule:nonzero;"/><path d="M2122.52,804.256c-23.67,-0 -45.881,14.766 -54.17,38.329l-114.87,326.395c-5.09,14.46 -4.24,30.03 2.38,43.85c6.63,13.82 18.24,24.23 32.7,29.32l190.26,66.91c14.45,5.08 30.02,4.23 43.84,-2.39c13.82,-6.63 24.23,-18.24 29.31,-32.7l114.8,-326.419c10.49,-29.842 -5.24,-62.659 -35.09,-73.155l-190.18,-66.887c-6.27,-2.205 -12.68,-3.253 -18.98,-3.253Zm75.38,517.714c-7.49,-0 -15,-1.27 -22.28,-3.83l-190.26,-66.91c-16.88,-5.94 -30.44,-18.1 -38.18,-34.24c-7.74,-16.14 -8.73,-34.32 -2.79,-51.21l114.87,-326.392c12.27,-34.843 50.59,-53.217 85.43,-40.963l190.19,66.888c34.85,12.256 53.23,50.582 40.97,85.434l-114.8,326.423c-5.93,16.88 -18.09,30.44 -34.23,38.18c-9.18,4.4 -19.03,6.62 -28.92,6.62Z" style="fill:#a523a2;fill-rule:nonzero;"/><path d="M2403.18,2000l-281.81,0c5.88,-46.69 51.82,-411.73 56.33,-447.61l0.01,0c7.96,-34.64 -6.74,-42.63 30.96,-103.75c9.67,-13.85 17.55,-18.03 30.73,-32.95c25.6,-33.73 40.75,-65.81 41.34,-127.6c-13.08,-15.73 -17.89,-46.7 -4.06,-69.86c25.48,-41.07 34.87,2.76 42.28,25.01c11.25,34.25 20.31,67.05 26.87,102.33c27.21,213.05 34.19,421.73 57.35,654.43Z" style="fill:#f99370;fill-rule:nonzero;"/><path d="M2304.26,1205.47c0,-0 -9.54,4.49 -9.11,21.49c0.43,17.01 5.59,23.78 5.59,23.78c-0,-0 9.12,-5.82 18.27,-7.32c0,-0 -7.39,-28.78 -14.75,-37.95Z" style="fill:#fcb5a7;fill-rule:nonzero;"/><path d="M2333.93,1293.13c-0,0 6.95,22.55 11.9,52.44c0,0 21.11,-70.09 22.72,-150.9l-34.62,98.46Z" style="fill:#e57d61;fill-rule:nonzero;"/><path d="M2308.11,984.822c-0.53,0 -1.07,-0.088 -1.6,-0.274l-218.21,-76.744c-2.51,-0.882 -3.83,-3.631 -2.95,-6.14c0.88,-2.509 3.63,-3.827 6.14,-2.945l218.22,76.745c2.5,0.882 3.82,3.631 2.94,6.14c-0.7,1.979 -2.56,3.218 -4.54,3.218Z" style="fill:#a523a2;fill-rule:nonzero;"/><path d="M2293.16,1027.33c-0.53,0 -1.07,-0.08 -1.6,-0.269l-218.21,-76.747c-2.51,-0.881 -3.83,-3.63 -2.951,-6.139c0.881,-2.509 3.631,-3.829 6.141,-2.945l218.21,76.75c2.51,0.88 3.83,3.63 2.95,6.14c-0.7,1.97 -2.56,3.21 -4.54,3.21Z" style="fill:#a523a2;fill-rule:nonzero;"/><path d="M2278.27,1069.65c-0.53,0 -1.06,-0.09 -1.59,-0.27l-218.22,-76.748c-2.51,-0.882 -3.821,-3.631 -2.94,-6.14c0.879,-2.509 3.629,-3.827 6.139,-2.944l218.211,76.742c2.51,0.88 3.83,3.63 2.95,6.14c-0.7,1.98 -2.56,3.22 -4.55,3.22Z" style="fill:#a523a2;fill-rule:nonzero;"/><path d="M2169.34,1618.85l8.36,-66.46c-0,0 89.82,30.4 188.29,-0.99l5.82,72.84c0,-0 -88.32,54.66 -202.47,-5.39Z" style="fill:#f4d4be;fill-rule:nonzero;"/><path d="M2429.87,2000l-354.66,0c26.67,-140.68 61.2,-299.4 94.13,-381.15c0,0 0.01,0 0.03,0.01c1.9,0.89 89.86,41.17 202.44,5.38c0,-0 32.36,66.22 58.06,375.76Z" style="fill:#1d3f70;fill-rule:nonzero;"/><path d="M2205,1593c0,5.64 -4.57,10.21 -10.21,10.21c-5.64,-0 -10.22,-4.57 -10.22,-10.21c0,-5.64 4.58,-10.21 10.22,-10.21c5.64,0 10.21,4.57 10.21,10.21Z" style="fill:#1d3f70;fill-rule:nonzero;"/><path d="M260.838,940.205l256.326,184.475c0,-0 -9.54,69.54 -60.388,154.05l-183.074,8.1c-0,0 -48.566,-196.38 -12.864,-346.625Z" style="fill:#f99370;fill-rule:nonzero;"/><path d="M353.583,1198.36l403.499,-157.64l-209.265,-535.646l-403.499,157.637l209.265,535.649Z" style="fill:#9358e0;fill-rule:nonzero;"/><path d="M155.187,621.04l-10.869,41.671l209.265,535.649l10.869,-41.67l-209.265,-535.65Z" style="fill:#7640cc;fill-rule:nonzero;"/><path d="M515.231,1135.21c0,0 -57.267,33.94 -88.824,66.63l-35.71,-17.98l124.534,-48.65Z" style="fill:#e57d61;fill-rule:nonzero;"/><path d="M364.452,1156.69l389.736,-152.26l-2.156,23.371l-386.718,153.799l-0.862,-24.91Z" style="fill:#ffdcdc;fill-rule:nonzero;"/><path d="M364.452,1156.69l403.499,-157.639l-209.265,-535.649l-403.499,157.638l209.265,535.65Z" style="fill:#9358e0;fill-rule:nonzero;"/><path d="M199.177,639.362l185.188,474.018l339.592,-132.67l-185.292,-473.978l-339.488,132.63Zm182.456,485.068c-1.925,-0 -3.743,-1.16 -4.486,-3.06l-188.692,-482.989c-0.465,-1.19 -0.438,-2.515 0.075,-3.684c0.512,-1.17 1.469,-2.088 2.658,-2.553l348.457,-136.133c2.475,-0.968 5.268,0.255 6.236,2.732l188.798,482.946c0.465,1.19 0.438,2.516 -0.074,3.685c-0.513,1.17 -1.469,2.088 -2.659,2.553l-348.562,136.173c-0.575,0.23 -1.168,0.33 -1.751,0.33Z" style="fill:#1d3f70;fill-rule:nonzero;"/><path d="M395.295,1088.43l303.71,-118.649l-171.267,-438.103l-303.613,118.614l171.17,438.138Z" style="fill:#1d3f70;fill-rule:nonzero;"/><path d="M572.77,2000l-334.11,0c5.956,-116.09 13.437,-262.93 20.9,-413.9c5.662,-115.1 9.851,-200.05 14.15,-299.27c2.593,-87.87 5.714,-170.91 22.19,-236.12c3.789,-16.47 8.45,-33.87 13.38,-50.79c4.27,-11.983 6.188,-27.087 13.439,-37.751c14.374,-15.926 33.489,16.576 35.95,32.491c5.013,15.88 -1.717,38.401 -9.789,49.19c2.707,61.75 18.941,93.27 45.688,126.11c13.664,14.47 21.712,18.37 31.832,31.88l0.01,0c40.226,60.81 25.195,68.19 34.754,104.13c29.156,181.32 82.128,510.65 111.606,694.03Z" style="fill:#f99370;fill-rule:nonzero;"/><path d="M322.547,962.087c-0,0 9.69,4.16 9.845,21.17c0.154,17.013 -4.773,23.953 -4.773,23.953c-0,0 -9.164,-6.03 -18.364,-7.21c0,0 6.249,-28.493 13.292,-37.913Z" style="fill:#fcb5a7;fill-rule:nonzero;"/><path d="M295.901,1050.71c0,0 -6.175,22.77 -10.097,52.82c-0,0 -23.501,-69.32 -27.881,-150.029l37.978,97.209Z" style="fill:#e57d61;fill-rule:nonzero;"/><path d="M629.71,2000l-412.39,0c0.32,-8.37 0.68,-16.73 1.08,-25.08c1.62,-33.57 3.87,-66.91 6.49,-99.14l-0,-0.01c3.14,-38.68 6.82,-75.76 10.58,-109.7c4.09,-36.85 8.28,-70.01 11.99,-97.53c6.75,-50.06 11.95,-81.46 12.1,-82.43l-0,-0.01l0.01,-0.01c106.94,40.46 244.58,-12.81 244.58,-12.81c8.71,26.32 17.389,53.48 25.91,80.79c9.55,30.61 18.89,61.41 27.83,91.46c10.87,36.59 21.13,72.06 30.41,104.67l-0,0.02c10.21,35.88 19.22,68.31 26.54,94.99c6.33,23.06 11.39,41.82 14.87,54.79Z" style="fill:#3a72aa;fill-rule:nonzero;"/><path d="M308.114,742.312c-1.926,0 -3.744,-1.163 -4.487,-3.064c-0.967,-2.477 0.256,-5.269 2.733,-6.237l215.457,-84.175c2.476,-0.964 5.269,0.257 6.237,2.733c0.968,2.477 -0.256,5.269 -2.733,6.237l-215.457,84.174c-0.575,0.225 -1.168,0.332 -1.75,0.332Z" style="fill:#7640cc;fill-rule:nonzero;"/><path d="M324.512,784.286c-1.925,0 -3.743,-1.163 -4.486,-3.064c-0.968,-2.477 0.256,-5.269 2.733,-6.237l215.457,-84.174c2.475,-0.967 5.269,0.256 6.237,2.732c0.967,2.477 -0.256,5.27 -2.733,6.237l-215.457,84.175c-0.575,0.224 -1.168,0.331 -1.751,0.331Z" style="fill:#7640cc;fill-rule:nonzero;"/><path d="M340.835,826.068c-1.925,-0 -3.743,-1.163 -4.486,-3.064c-0.968,-2.477 0.256,-5.269 2.733,-6.237l215.457,-84.174c2.477,-0.968 5.269,0.256 6.237,2.733c0.968,2.476 -0.256,5.269 -2.733,6.237l-215.457,84.174c-0.575,0.224 -1.168,0.331 -1.751,0.331Z" style="fill:#7640cc;fill-rule:nonzero;"/><path d="M272.449,1315.81c0,-0 67.165,33.95 188.706,-9.85c-0,0 20.361,20.82 6.921,43.03c-0,-0 -113.602,47.14 -197.655,11.62c-0,-0 -18.671,-19.9 2.028,-44.8Z" style="fill:#1d3f70;fill-rule:nonzero;"/><path d="M406.048,1344.82c0.618,2.92 -1.25,5.79 -4.173,6.41c-2.922,0.62 -5.793,-1.25 -6.411,-4.17c-0.619,-2.93 1.249,-5.8 4.172,-6.42c2.923,-0.61 5.793,1.25 6.412,4.18Z" style="fill:#092444;fill-rule:nonzero;"/><path d="M424.036,1340.45c0.618,2.92 -1.25,5.79 -4.172,6.41c-2.923,0.62 -5.794,-1.25 -6.412,-4.18c-0.619,-2.92 1.25,-5.79 4.173,-6.41c2.922,-0.61 5.792,1.25 6.411,4.18Z" style="fill:#092444;fill-rule:nonzero;"/><path d="M441.969,1335.81c0.618,2.93 -1.249,5.8 -4.172,6.41c-2.923,0.62 -5.794,-1.24 -6.412,-4.17c-0.618,-2.92 1.25,-5.79 4.173,-6.41c2.922,-0.62 5.793,1.25 6.411,4.17Z" style="fill:#092444;fill-rule:nonzero;"/><path d="M530.07,1654.13c-149.65,58.83 -282.34,15.47 -282.34,15.47c-0.09,-0.35 -0.18,-0.71 -0.27,-1.06c6.75,-50.06 11.95,-81.46 12.1,-82.43c0.01,-0.01 0.01,-0.02 0.01,-0.02c106.94,40.46 244.58,-12.81 244.58,-12.81c8.71,26.32 17.389,53.48 25.91,80.79c0.01,0.04 0.01,0.06 0.01,0.06Z" style="fill:#23659b;fill-rule:nonzero;"/><path d="M588.3,1850.2l-0,0.02c-0,0 -180.98,68.34 -363.41,25.56l-0,-0.01c3.14,-38.68 6.82,-75.76 10.58,-109.7c0.01,0 0.01,-0.01 0.01,-0.01c-0,-0 156.63,53.3 322.39,-20.56c-0,0 0.01,0.01 0.02,0.03c10.87,36.59 21.13,72.06 30.41,104.67Z" style="fill:#23659b;fill-rule:nonzero;"/><path d="M629.71,2000l-412.39,0c0.32,-8.37 0.68,-16.73 1.08,-25.08c-0,0 7.6,1.52 21.37,3.43c50.05,6.91 181.61,18.88 326.51,-18.74c16.05,-4.17 32.27,-8.94 48.56,-14.4c6.33,23.06 11.39,41.82 14.87,54.79Z" style="fill:#23659b;fill-rule:nonzero;"/></g></g></svg>