<?xml version="1.0" encoding="UTF-8" standalone="no"?><!DOCTYPE svg PUBLIC "-//W3C//DTD SVG 1.1//EN" "http://www.w3.org/Graphics/SVG/1.1/DTD/svg11.dtd"><svg width="100%" height="100%" viewBox="0 0 241 539" version="1.1" xmlns="http://www.w3.org/2000/svg" xmlns:xlink="http://www.w3.org/1999/xlink" xml:space="preserve" xmlns:serif="http://www.serif.com/" style="fill-rule:evenodd;clip-rule:evenodd;stroke-linejoin:round;stroke-miterlimit:2;"><g><path d="M159.097,453.195c-10.11,-3.732 -19.638,-10.128 -27.35,-17.586c-7.355,-7.112 -13.737,-15.222 -18.969,-24.014c14.234,-53.605 30.162,-111.98 33.621,-126.545c0.403,-1.695 1.668,-2.476 2.964,-2.476c1.618,0 3.284,1.218 3.373,3.393c1.303,31.46 5.55,110.61 6.361,167.228Zm56.402,-19.593c-1.3,-78.093 -10.128,-189.849 -35.894,-232.434l1.856,-6.661c0.382,-0.011 0.804,-0.039 1.26,-0.083c3.184,1.798 5.922,2.558 8.238,2.559c7.49,0 10.584,-7.926 10.139,-14.256c-0.347,-4.902 -2.679,-16.519 -5.762,-29.525c-0.114,-1.163 -0.233,-2.364 -0.355,-3.598c-0.355,-3.57 -0.797,-6.759 -1.312,-9.609c8.173,13.525 14.458,26.642 17.608,36.593c24.423,77.155 43.197,162.144 13.883,237.576c-2.59,6.666 -5.738,13.377 -9.661,19.438Zm-128.87,-113.339c-3.806,-8.389 -9.307,-15.426 -17.772,-20.007c-9.042,-4.892 -19.748,-5.565 -29.358,-9.216c-19.92,-7.566 -33.185,-27.573 -37.512,-48.438c-4.326,-20.864 -0.968,-42.558 4.138,-63.246c6.665,-27.004 16.667,-53.906 34.848,-74.956c16.496,-19.102 40.722,-32.746 65.716,-32.746c2.548,0 5.106,0.142 7.663,0.434l9.187,1.82c0.986,0.117 1.979,0.286 2.981,0.508c-0.041,0.424 -0.068,0.85 -0.078,1.277c-0.134,5.32 2.995,9.766 -0.67,12.505c-3.737,2.793 -5.828,3.669 -8.883,7.193c-4.152,4.789 -5.653,11.741 -3.844,17.816c3.302,-0.598 8.736,-1.375 12.538,-1.375c0.462,-0 0.899,0.011 1.306,0.035c0.811,-5.87 -0.671,-9.825 1.14,-14.674c-0.027,4.732 0.378,9.467 1.214,14.125c5.415,-1.012 10.937,-1.491 16.507,-1.669c-0.146,2.248 -0.318,4.509 -0.516,6.451c-0.172,-0.278 -0.263,-0.432 -0.263,-0.432c-2.584,1.573 -19.045,15.319 -19.045,15.319c-2.652,1.568 -4.078,4.713 -4.676,9.224c-0.029,0.154 -0.052,0.313 -0.071,0.472c-0.187,1.616 -0.272,3.397 -0.275,5.339c-0.037,11.241 2.718,27.784 4.929,47.839l-0.116,6.738c-0.13,0.005 -0.261,0.009 -0.391,0.013c-8.321,14.71 -12.718,25.484 -17.5,44.187c-1.998,7.813 -10.725,38.084 -21.197,75.464Zm8.723,-205.632c-0.961,0 -1.983,0.239 -2.994,0.761c-3.15,1.624 -3.725,5.023 -2.596,7.211c0.81,1.572 2.632,2.595 4.619,2.595c0.89,-0 1.814,-0.206 2.695,-0.66c3.194,-1.647 4.146,-4.743 2.882,-7.193c-0.867,-1.682 -2.609,-2.714 -4.606,-2.714Zm-8.945,-15.935c0.758,0 1.43,0.298 1.85,1.113c1.242,2.407 -4.544,8.271 -2.468,12.297l1.85,3.479l8.097,-4.175l-1.242,-2.407c-1.354,-2.626 4.883,-7.615 1.949,-13.303c-1.898,-3.68 -5.012,-5.338 -8.496,-5.338c-2.108,-0 -4.352,0.606 -6.546,1.738c-4.377,2.255 -7.231,6.387 -8.467,11.512l7.186,2.332c0.585,-2.517 1.956,-5.551 3.838,-6.521c0.781,-0.403 1.661,-0.727 2.449,-0.727Zm84.299,22.412l-0.116,-0.01c-0.643,-1.146 -1.124,-1.902 -1.391,-2.167c-0.013,0.056 -0.028,0.113 -0.043,0.169l-0.785,-5.903l4.282,0.977c0,-0 -0.159,2.088 -0.349,5.591c-0.952,0.643 -1.522,1.191 -1.552,1.262c0,-0 -0.016,0.026 -0.046,0.081Z" style="fill:#e6e3e1;fill-rule:nonzero;"/><path d="M55.166,345.223c-7.205,0 -13.344,-5.508 -13.994,-12.823c-0.688,-7.738 5.027,-14.567 12.765,-15.256c0.425,-0.037 0.844,-0.056 1.262,-0.056c7.205,0 13.344,5.508 13.996,12.823c0.687,7.738 -5.029,14.568 -12.767,15.256c-0.425,0.038 -0.844,0.056 -1.262,0.056Z" style="fill:#e6e3e1;fill-rule:nonzero;"/><path d="M20.706,107.923c-2.922,0 -5.411,-2.233 -5.676,-5.201c-0.279,-3.137 2.04,-5.908 5.177,-6.186c0.172,-0.015 0.344,-0.023 0.514,-0.023c2.921,-0 5.41,2.234 5.674,5.2c0.279,3.139 -2.039,5.908 -5.177,6.187c-0.172,0.015 -0.343,0.023 -0.512,0.023Z" style="fill:#e6e3e1;fill-rule:nonzero;"/><path d="M42.301,89.102c-7.16,-0.001 -13.259,-5.473 -13.905,-12.742c-0.684,-7.688 4.996,-14.476 12.684,-15.16c0.421,-0.037 0.839,-0.056 1.254,-0.056c7.161,-0 13.261,5.474 13.907,12.742c0.684,7.689 -4.996,14.476 -12.686,15.16c-0.421,0.037 -0.838,0.056 -1.254,0.056Z" style="fill:#e6e3e1;fill-rule:nonzero;"/><path d="M31.346,533.302c-0,-2.784 39.22,-5.041 87.601,-5.041c48.381,-0 87.602,2.257 87.602,5.041c-0,2.783 -39.221,5.039 -87.602,5.039c-48.381,0 -87.601,-2.256 -87.601,-5.039Z" style="fill:#e1dedb;fill-rule:nonzero;"/><path d="M167.974,47.113c10.907,0.219 16.056,10.978 16.334,21.884c0.09,3.522 -0.663,7.205 0.664,10.469c1.909,4.691 7.334,6.785 10.688,10.58c3.398,3.843 4.453,9.608 2.641,14.407c-3.146,0.311 -6.292,0.624 -9.437,0.935c-1.31,-3.021 -2.619,-6.04 -3.929,-9.061c-0.403,3.271 0.04,10.781 -0.362,14.052c-5.605,0.027 -11.287,-0.19 -16.99,-0.406c-12.891,-0.49 -25.891,-0.981 -38.34,1.345c-0.836,-4.658 -1.241,-9.393 -1.214,-14.125c-1.811,4.849 -0.329,8.804 -1.14,14.674c-3.759,-0.226 -10.142,0.669 -13.844,1.34c-1.809,-6.075 -0.308,-13.027 3.844,-17.816c3.055,-3.524 5.146,-4.4 8.883,-7.193c3.665,-2.739 0.536,-7.185 0.67,-12.505c0.243,-9.757 8.791,-19.443 16.301,-25.678c7.507,-6.236 16.173,-6.404 25.435,-3.324l-0.204,0.422Z" style="fill-rule:nonzero;"/><path d="M146.329,98.113c0,0 -0.782,22.246 -2.152,23.493c-0.309,0.283 -3.829,0.895 -5.028,1.494c3.652,6.897 19.475,23.07 19.475,23.07l18.275,-24.568l-7.491,-0.598l-2.937,-22.092l-20.142,-0.799Z" style="fill:#f5846e;fill-rule:nonzero;"/><path d="M147.865,99.079l16.462,-0c-0,-0 -1.606,8.972 -9.318,8.387c-7.713,-0.586 -7.144,-8.387 -7.144,-8.387Z" style="fill:#cc555c;fill-rule:nonzero;"/><path d="M137.506,70.678c-0,-0 -0.969,6.626 -0.708,7.41c0.084,0.251 -0.412,0.107 -1.109,-0.04c-1.481,-0.31 -3.877,-0.618 -3.541,2.89c0.301,3.151 1.912,5.549 5.4,5.55c0,0 3.407,16.52 17.772,16.008c17.393,-0.622 19.475,-12.741 19.475,-12.741c-0,0 5.356,-0.867 5.656,-5.516c0.114,-4.117 -3.15,-3.75 -3.15,-3.75c-0,-0 2.883,-10.004 1.14,-16.11c-1.741,-6.105 -1.512,-16.708 -16.162,-17.934c-14.649,-1.225 -23.81,11.414 -24.335,15.077c-0.524,3.663 -0.438,9.156 -0.438,9.156Z" style="fill:#f5846e;fill-rule:nonzero;"/><path d="M166.59,99.804c2.269,-1.195 3.927,-2.648 5.131,-4.075c-1.204,1.427 -2.86,2.881 -5.131,4.075Zm5.131,-4.075c0.004,-0.006 0.009,-0.011 0.013,-0.017c-0.004,0.006 -0.009,0.011 -0.013,0.017Zm0.032,-0.04l0.002,-0.001l-0.002,0.001Z" style="fill:#983d47;fill-rule:nonzero;"/><path d="M165.294,100.427l-0.002,-0c0.454,-0.198 0.885,-0.406 1.298,-0.623c-0.413,0.217 -0.844,0.425 -1.296,0.623Z" style="fill:#d75f61;fill-rule:nonzero;"/><path d="M152.694,102.384c-0.134,-0.017 -0.267,-0.034 -0.398,-0.053c0.063,-0.02 0.126,-0.04 0.189,-0.059c0.069,0.038 0.139,0.075 0.209,0.112Zm12.598,-1.957c-2.309,-0.06 -4.818,-0.107 -7.082,-0.107l-0.362,0c5.674,-2.332 11.167,-5.42 16.417,-8.832c-0.436,1.113 -1.203,2.639 -2.51,4.2l-0.002,0.001c-0.006,0.008 -0.012,0.015 -0.019,0.023c-0.004,0.006 -0.009,0.011 -0.013,0.017c-1.204,1.427 -2.862,2.88 -5.131,4.075c-0.413,0.217 -0.844,0.425 -1.298,0.623Z" style="fill:#d75f61;fill-rule:nonzero;"/><path d="M163.503,45.679c-7.847,-1.747 -14.654,1.46 -14.654,1.46c-15.872,4.703 -12.761,29.847 -12.761,29.847c3.298,7.713 6.318,0.143 8.459,-6.804c0.814,-2.64 3.386,-4.484 6.116,-4.066c3.045,0.469 7.051,-1.185 8.384,-6.485c4.044,8.987 10.693,16.444 18.083,20.937c3.005,1.056 16.947,-30.172 -13.627,-34.889Z" style="fill-rule:nonzero;"/><path d="M160.396,75.985c0,-0 0.757,-1.214 2.237,-0.998c4.126,0.599 3.988,2.497 3.988,2.497l-6.225,-1.499Z" style="fill-rule:nonzero;"/><path d="M153.368,72.597c0,-0 -0.952,-1.314 -2.814,-1.47c-2.808,-0.234 -3.107,0.777 -3.883,1.399l6.697,0.071Z" style="fill-rule:nonzero;"/><path d="M154.387,87.431l2.535,0.543c0.634,0.066 0.334,-10.047 0.334,-10.047c0,-0 -3.486,9.44 -2.869,9.504Z" style="fill:#cc555c;fill-rule:nonzero;"/><path d="M136.648,80.339c0,-0 0.305,3.615 0.565,4.399c0.263,0.785 -2.861,-0.7 -2.814,-2.75c0.043,-2.049 2.249,-1.649 2.249,-1.649Z" style="fill:#cc555c;fill-rule:nonzero;"/><path d="M175.8,87.089l1.351,-4.8c-0,-0 1.891,0.407 1.349,2.249c-0.75,2.551 -2.7,2.551 -2.7,2.551Z" style="fill:#cc555c;fill-rule:nonzero;"/><path d="M163.515,83.174c-0.277,1.03 -0.977,1.737 -1.565,1.579c-0.588,-0.157 -0.842,-1.12 -0.566,-2.15c0.277,-1.03 0.977,-1.736 1.565,-1.579c0.59,0.157 0.842,1.12 0.566,2.15Z" style="fill-rule:nonzero;"/><path d="M152.375,82.054c-0.062,1.064 -0.607,1.897 -1.215,1.861c-0.608,-0.035 -1.05,-0.927 -0.986,-1.992c0.061,-1.064 0.605,-1.897 1.214,-1.862c0.608,0.037 1.05,0.928 0.987,1.993Z" style="fill-rule:nonzero;"/><path d="M146.504,84.269c1.766,0.884 2.482,3.033 1.598,4.801c-0.885,1.767 -3.033,2.482 -4.8,1.597c-1.767,-0.883 -2.483,-3.033 -1.598,-4.8c0.883,-1.767 3.033,-2.483 4.8,-1.598Z" style="fill:#ec685d;fill-rule:nonzero;"/><path d="M167.647,87.169c1.766,0.885 2.481,3.033 1.598,4.8c-0.885,1.767 -3.034,2.483 -4.801,1.599c-1.767,-0.885 -2.483,-3.034 -1.598,-4.8c0.884,-1.767 3.033,-2.483 4.801,-1.599Z" style="fill:#ec685d;fill-rule:nonzero;"/><path d="M153.423,90.988c0.319,0.035 1.689,0.222 2.92,0.584l0.19,-0.644c-1.299,-0.382 -2.684,-0.568 -3.035,-0.607l-0.075,0.667Z" style="fill-rule:nonzero;"/><path d="M162.211,487.051l3.643,36.8c-0,0 10.607,0.335 13.509,-0.669c2.456,-0.337 9.287,-6.192 10.378,-7.832c-2.48,-1.378 -8.405,-5.373 -8.405,-5.373l1.378,-23.56l-20.503,0.634Z" style="fill:#f5846e;fill-rule:nonzero;"/><path d="M174.106,487.862l-0.346,6.684c-0,-0 -7.441,29.656 -8.13,26.626l-2.92,-31.737l11.396,-1.573Z" style="fill:#cc555c;fill-rule:nonzero;"/><path d="M181.612,509.425l21.783,14.202c0.929,0.69 2.082,10.597 0.754,10.606c0,0 -22.83,1.18 -34.164,0.895c-0.71,-0.018 -1.157,-10.081 -1.785,-10.1c-0.601,-0.019 -1.276,10.565 -1.788,10.546c-2.152,-0.083 -3.473,-0.176 -3.484,-0.28c-0.351,-3.557 1.362,-25.064 1.362,-25.064c-0,-0 7.928,8.262 9.491,10.718c2.065,-0.715 7.211,-11.984 7.831,-11.523Z" style="fill:#f7c952;fill-rule:nonzero;"/><path d="M181.612,509.425l21.783,14.202c0.929,0.69 2.082,10.597 0.754,10.606c0,0 -22.83,1.18 -34.164,0.895c-0.71,-0.018 -1.157,-10.081 -1.785,-10.1c-0.601,-0.019 -1.276,10.565 -1.788,10.546c-2.152,-0.083 -3.473,-0.176 -3.484,-0.28c-0.351,-3.557 1.362,-25.064 1.362,-25.064c-0,-0 7.928,8.262 9.491,10.718c2.065,-0.715 7.211,-11.984 7.831,-11.523Z" style="fill:#2170b8;fill-rule:nonzero;"/><path d="M89.376,487.663l-3.17,28.375c-0,-0 -9.094,12.452 -13.639,6.889c-2.273,-2.781 -9.519,-5.937 -10.609,-7.577c2.48,-1.378 8.404,-5.373 8.404,-5.373l2.274,-22.728l16.74,0.414Z" style="fill:#f5846e;fill-rule:nonzero;"/><path d="M82.969,487.249l0.414,2.479c0,-0 2.409,30.582 3.099,27.55l5.992,-30.029l-9.505,0Z" style="fill:#cc555c;fill-rule:nonzero;"/><path d="M69.308,509.425l-21.783,14.202c-0.929,0.69 -2.081,10.597 -0.754,10.606c0,0 22.831,1.18 34.165,0.895c0.71,-0.018 1.156,-10.081 1.785,-10.1c0.599,-0.019 1.275,10.565 1.787,10.546c2.153,-0.083 3.473,-0.176 3.484,-0.28c0.353,-3.557 0.116,-24.173 0.116,-24.173c0,0 -5.954,6.254 -10.42,9.827c-2.065,-0.715 -7.76,-11.984 -8.38,-11.523Z" style="fill:#2170b8;fill-rule:nonzero;"/><path d="M125.326,200.612c-8.321,14.71 -12.718,25.484 -17.5,44.187c-5.546,21.69 -62.953,216.453 -65.568,255.904c6.835,1.647 43.616,0.239 47.934,-0c8.267,-39.01 50.316,-190.849 56.207,-215.653c0.906,-3.813 6.176,-2.999 6.337,0.917c1.766,42.648 8.944,172.941 5.636,215.926c11.161,0.62 51.536,3.198 55.676,2.68c4.502,-48.585 1.629,-243.787 -34.443,-303.405c-16.494,-2.276 -37.554,-1.055 -54.279,-0.556Z" style="fill:#081b3c;fill-rule:nonzero;"/><path d="M174.96,200.825c0.001,0.003 0.281,0.669 0.783,1.945c3.509,8.93 17.766,47.496 21.015,92.224c1.889,26.012 4.643,78.339 6.924,124.158c1.142,22.911 2.163,44.196 2.902,59.753c0.368,7.777 0.665,14.124 0.87,18.525c0.206,4.402 0.318,6.859 0.318,6.859l0.644,-0.029c-0,-0.003 -7.236,-157.264 -11.018,-209.312c-3.724,-51.242 -21.838,-94.354 -21.845,-94.372l-0.593,0.249Z" style="fill:#fff;fill-rule:nonzero;"/><path d="M54.18,501.678l79.454,-300.428l-0.624,-0.166l-79.451,300.43l0.621,0.164Z" style="fill:#fff;fill-rule:nonzero;"/><path d="M110.524,257.968c-0,0 3.123,-34.462 15.189,-57.112l49.378,0.284c0.093,0.227 0.234,0.574 0.417,1.037l-54.493,46.783l12.619,-47.71l-0.624,-0.166l-12.856,48.615l-9.63,8.269Zm65.5,-56.235c-0.093,-0.229 -0.172,-0.426 -0.238,-0.589l0.917,0.006l-0.679,0.583Z" style="fill:#00102e;fill-rule:nonzero;"/><path d="M175.508,202.177c-0.183,-0.463 -0.324,-0.81 -0.417,-1.037l0.695,0.004c0.066,0.163 0.145,0.36 0.238,0.589l-0.516,0.444Z" style="fill:#bfc1c1;fill-rule:nonzero;"/><path d="M120.154,249.699l12.856,-48.615l0.624,0.166l-12.619,47.71l-0.861,0.739Z" style="fill:#bfc1c1;fill-rule:nonzero;"/><path d="M182.245,191.692l-2.64,9.476l-53.892,-0.312l0.156,-9.008l56.376,-0.156Z" style="fill:#081b3c;fill-rule:nonzero;"/><path d="M170.752,121.027c0.174,-0.423 19.621,-17.802 24.229,28.577c3.734,37.59 3.436,41.608 3.436,41.608c0,-0 -18.195,4.788 -19.054,2.829c-22.249,-50.688 -8.611,-73.014 -8.611,-73.014Z" style="fill:#e0dcdb;fill-rule:nonzero;"/><path d="M169.199,118.931c2.248,2.246 19.983,39.671 20.449,51.096c0.516,12.633 -3.675,22.753 -3.675,22.753c0,-0 -58.817,0.882 -60.104,1.398c-3.721,-33.893 -9.036,-57.817 0.057,-63.191c-0,0 16.461,-13.746 19.045,-15.319c-0,-0 17.472,29.587 24.228,3.263Z" style="fill:#f7c952;fill-rule:nonzero;"/><path d="M140.509,118.567l4.69,-9.155l16.747,20.319l-5.136,11.166l-16.301,-22.33Z" style="fill:#fffbf9;fill-rule:nonzero;"/><path d="M168.421,112.538l-6.475,17.193l6.028,10.942l6.03,-18.088l-5.583,-10.047Z" style="fill:#fffbf9;fill-rule:nonzero;"/><path d="M120.904,146.022c0.003,-1.942 0.088,-3.723 0.275,-5.339c0.019,-0.159 0.042,-0.318 0.071,-0.472c-0.231,1.737 -0.338,3.679 -0.346,5.811Z" style="fill:#e1b64e;fill-rule:nonzero;"/><path d="M179.196,193.66c-7.743,-0.058 -21.259,-0.151 -32.749,-0.173c11.251,-0.243 24.473,-0.467 32.416,-0.595c0.109,0.253 0.221,0.513 0.333,0.768Z" style="fill:#080f09;fill-rule:nonzero;"/><path d="M181.485,193.678c-0.689,-0.005 -1.456,-0.011 -2.289,-0.018c-0.112,-0.255 -0.224,-0.515 -0.333,-0.768c0.566,-0.01 1.105,-0.018 1.616,-0.026c0.323,0.305 0.659,0.577 1.006,0.812Z" style="fill:#ddb24c;fill-rule:nonzero;"/><path d="M125.867,193.712c-2.205,-20.097 -4.971,-36.527 -4.963,-47.69c0.008,-2.132 0.115,-4.074 0.346,-5.811c0.535,-2.917 2.789,-4.91 5.387,-4.91c0.853,0 1.743,0.215 2.621,0.682c0.17,0.089 0.336,0.139 0.497,0.14c0.87,0.002 1.975,0.365 1.937,1.235c-1.866,42.816 9.914,48.996 29.336,48.996c4.686,-0 9.817,-0.359 15.309,-0.652c1.115,3.12 2.478,5.593 4.142,7.164c-0.511,0.008 -1.05,0.016 -1.616,0.026c-7.943,0.128 -21.165,0.352 -32.416,0.595c-1.56,-0.003 -3.08,-0.004 -4.546,-0.004c-8.835,-0 -15.605,0.057 -16.034,0.229Z" style="fill:#f5a32b;fill-rule:nonzero;"/><path d="M172.653,114.174c0,-0 -5.393,70.772 9.099,79.678c14.178,8.713 19.943,-2.642 19.346,-11.125c-0.791,-11.214 -11.985,-57.572 -18.758,-75.326c-2.084,-7.145 -6.996,-15.63 -8.634,-14.29c-1.191,2.233 -0.446,7.592 -0.446,7.592c-0,-0 -20.767,-0.93 -22.256,0.112c-0.687,0.48 1.563,1.823 10.942,3.907c-1.042,1.786 0.596,7.145 0.596,7.145l10.111,2.307Z" style="fill:#f5846e;fill-rule:nonzero;"/><path d="M161.276,104.666c-2.961,-0.347 -5.938,-0.906 -8.558,-2.27c0.26,0.03 0.523,0.055 0.791,0.072c1.637,0.578 4.144,1.283 7.795,2.11c-0.013,0.028 -0.023,0.058 -0.028,0.088Z" style="fill:#cc555c;fill-rule:nonzero;"/><path d="M153.509,102.468c-0.268,-0.017 -0.531,-0.042 -0.791,-0.072c-0.008,-0.004 -0.016,-0.008 -0.024,-0.012c0.26,0.031 0.524,0.057 0.792,0.076c0.008,0.003 0.016,0.006 0.023,0.008Zm-1.024,-0.196c-0.537,-0.292 -1.057,-0.619 -1.559,-0.986c-0.148,-0.109 -0.181,-0.32 -0.071,-0.47c0.066,-0.089 0.167,-0.137 0.271,-0.137c0.042,0 0.086,0.009 0.127,0.025c-0.109,0.034 -0.193,0.071 -0.249,0.111c-0.347,0.243 0.055,0.706 1.747,1.372c-0.089,0.029 -0.178,0.056 -0.266,0.085Z" style="fill:#df6a65;fill-rule:nonzero;"/><path d="M153.486,102.46c-0.268,-0.019 -0.532,-0.045 -0.792,-0.076c-0.07,-0.037 -0.14,-0.074 -0.209,-0.112c0.088,-0.029 0.177,-0.056 0.266,-0.085c0.223,0.088 0.467,0.179 0.735,0.273Z" style="fill:#d15a5f;fill-rule:nonzero;"/><path d="M163.958,104.939c-0.01,0 -0.021,-0.001 -0.031,-0.001c-0.642,-0.06 -1.292,-0.123 -1.944,-0.193c-0.022,-0.064 -0.052,-0.128 -0.09,-0.192c-0.063,-0.104 -0.173,-0.163 -0.288,-0.163c-0.059,0 -0.119,0.016 -0.174,0.049c-0.056,0.034 -0.099,0.083 -0.127,0.139c-3.651,-0.827 -6.158,-1.532 -7.795,-2.11c-0.007,-0.002 -0.015,-0.005 -0.023,-0.008c-0.268,-0.094 -0.512,-0.185 -0.735,-0.273c-1.692,-0.666 -2.094,-1.129 -1.747,-1.372c0.056,-0.04 0.14,-0.077 0.249,-0.111c0.024,0.011 0.049,0.025 0.071,0.041c3.525,2.593 8.186,3.11 12.665,3.523c0.185,0.018 0.321,0.181 0.304,0.366c-0.017,0.174 -0.163,0.305 -0.335,0.305Z" style="fill:#df6a65;fill-rule:nonzero;"/><path d="M161.599,106.443c-0.075,-0.12 -0.138,-0.254 -0.176,-0.407l0,0.001c-0.038,-0.152 -0.045,-0.295 -0.045,-0.426c0,-0.133 0.007,-0.253 0.007,-0.355c-0,-0.085 -0.004,-0.154 -0.015,-0.212c0.116,-0.123 0.227,-0.248 0.335,-0.375c0.079,0.017 0.159,0.035 0.241,0.053c-0.243,0.418 -0.341,1.028 -0.347,1.721Z" style="fill:#df6a65;fill-rule:nonzero;"/><path d="M161.37,105.044c-0.011,-0.059 -0.027,-0.106 -0.052,-0.145c-0.044,-0.072 -0.057,-0.155 -0.042,-0.233c0.005,-0.03 0.015,-0.06 0.028,-0.088c0.131,0.031 0.265,0.061 0.401,0.091c-0.108,0.127 -0.219,0.252 -0.335,0.375Z" style="fill:#cc555c;fill-rule:nonzero;"/><path d="M166.192,108.834c-0.018,0 -0.034,-0.001 -0.052,-0.004c-1.3,-0.202 -2.545,-0.72 -3.605,-1.497c-0.007,-0.246 -0.018,-0.494 -0.04,-0.744c-0.017,-0.174 -0.164,-0.303 -0.334,-0.303c-0.011,-0 -0.022,-0 -0.033,0.001c-0.184,0.018 -0.32,0.182 -0.302,0.366c0.003,0.03 0.007,0.06 0.01,0.09c-0.086,-0.09 -0.167,-0.188 -0.237,-0.3c0.006,-0.693 0.104,-1.303 0.347,-1.721c-0.082,-0.018 -0.162,-0.036 -0.241,-0.053c-0.136,-0.03 -0.27,-0.06 -0.401,-0.091c0.028,-0.056 0.071,-0.105 0.127,-0.139c0.055,-0.033 0.115,-0.049 0.174,-0.049c0.115,0 0.225,0.059 0.288,0.163c0.038,0.064 0.068,0.128 0.09,0.192c0.064,0.18 0.073,0.358 0.074,0.511c-0,0.13 -0.008,0.25 -0.008,0.355l0.026,0.262l-0,0.002c0.046,0.21 0.245,0.43 0.501,0.639c1.042,0.866 2.327,1.445 3.667,1.652c0.183,0.029 0.308,0.2 0.28,0.383c-0.025,0.166 -0.168,0.285 -0.331,0.285Z" style="fill:#df6a65;fill-rule:nonzero;"/><path d="M166.637,112.385c-0.019,-0 -0.036,-0.002 -0.056,-0.006c-0.759,-0.127 -1.55,-0.258 -2.308,-0.569c-0.759,-0.313 -1.487,-0.825 -1.913,-1.587c-0.616,-1.132 -0.427,-2.397 -0.524,-3.48c-0.003,-0.03 -0.007,-0.06 -0.01,-0.09c-0.018,-0.184 0.118,-0.348 0.302,-0.366c0.011,-0.001 0.022,-0.001 0.033,-0.001c0.17,-0 0.317,0.129 0.334,0.303c0.022,0.25 0.033,0.498 0.04,0.744c0.03,0.957 0.012,1.862 0.412,2.564c0.323,0.581 0.918,1.02 1.582,1.291c0.664,0.275 1.405,0.403 2.163,0.53c0.183,0.03 0.307,0.204 0.276,0.387c-0.027,0.164 -0.169,0.28 -0.331,0.28Z" style="fill:#df6a65;fill-rule:nonzero;"/><path d="M71.395,194.089c-2.893,-5.006 -2.397,-11.272 1.155,-15.835c6.097,-7.831 18.418,-18.828 34.278,-36.63c9.575,-10.749 19.278,-15.339 24.695,-14.91c8.613,0.684 8.714,13.565 3.261,20.268c-11.714,14.396 -39.817,41.509 -40.72,42.594c6.586,13.226 13.37,22.004 18.963,30.095c0.317,0.459 0.666,0.857 1.02,1.197c2.061,1.976 3.693,4.352 4.45,7.106c1.806,6.581 4.363,16.944 2.451,16.626c-2.796,-0.466 -6.523,-9.552 -6.523,-9.552c0,-0 2.097,24.461 -2.33,24.927c-0.467,-0.466 -3.96,-15.841 -3.494,-18.637c-0,0 1.412,17.955 -0,19.104c-3.727,3.029 -3.029,-2.098 -3.029,-2.098l-1.863,-24.693c-0,-0 -21.847,-21.449 -32.314,-39.562Z" style="fill:#f5846e;fill-rule:nonzero;"/><path d="M131.523,126.714c-5.417,-0.429 -15.12,4.161 -24.695,14.91c-8.287,9.302 -15.595,16.733 -21.566,22.838c0.323,0.284 0.645,0.569 0.967,0.856l0.067,0.057c0.537,0.291 1.065,0.663 1.573,1.141c5.488,5.176 10.892,10.431 16.21,15.774c8.762,-9.795 22.871,-25.68 30.705,-35.308c5.453,-6.703 5.352,-19.584 -3.261,-20.268Z" style="fill:#f7c952;fill-rule:nonzero;"/><path d="M112.815,63.564c-5.647,-0 -9.905,-4.432 -9.905,-8.951c-0,-4.344 3.649,-9.212 9.905,-9.212c6.172,0 10.343,4.259 10.343,9.212c-0,4.866 -3.998,8.951 -10.343,8.951Zm8.518,-21.678l-16.077,0l-0.087,-6.951c-0,-7.995 13.818,-12.514 13.818,-17.294c-0,-3.302 -3.39,-4.085 -6.431,-4.085c-3.737,-0 -8.343,3.65 -11.297,7.126l-9.387,-9.472c6.084,-7.039 13.904,-11.21 22.596,-11.21c11.558,0 20.682,6.083 20.682,17.814c-0,11.297 -13.817,14.079 -13.817,19.293l0,4.779Z" style="fill:#b9bcbc;fill-rule:nonzero;"/><path d="M94.381,125.198c-1.987,-0 -3.809,-1.023 -4.619,-2.595c-1.129,-2.188 -0.554,-5.587 2.596,-7.211c1.011,-0.522 2.033,-0.761 2.994,-0.761c1.997,0 3.739,1.032 4.606,2.714c1.264,2.45 0.312,5.546 -2.882,7.193c-0.881,0.454 -1.805,0.66 -2.695,0.66Zm-6.742,-9.613l-1.85,-3.479c-2.076,-4.026 3.71,-9.89 2.468,-12.297c-0.42,-0.815 -1.092,-1.113 -1.85,-1.113c-0.788,0 -1.668,0.324 -2.449,0.727c-1.882,0.97 -3.253,4.004 -3.838,6.521l-7.186,-2.332c1.236,-5.125 4.09,-9.257 8.467,-11.512c2.194,-1.132 4.438,-1.738 6.546,-1.738c3.484,-0 6.598,1.658 8.496,5.338c2.934,5.688 -3.303,10.677 -1.949,13.303l1.242,2.407l-8.097,4.175Z" style="fill:#f7f4f4;fill-rule:nonzero;"/><path d="M199.33,64.273c-1.086,-0 -2.261,-0.323 -3.426,-1.029c-2.736,-1.658 -3.5,-5.056 -2.174,-7.246c0.847,-1.399 2.545,-2.437 4.477,-2.437c0.975,0 2.01,0.264 3.028,0.88c2.991,1.812 3.762,5.099 2.309,7.5c-0.888,1.464 -2.434,2.332 -4.214,2.332Zm7.064,-9.036l-7.791,-4.717l1.998,-3.395c2.346,-3.875 10.37,-2.01 11.771,-4.327c0.97,-1.599 -0.442,-2.974 -1.917,-3.866c-0.78,-0.473 -1.835,-0.664 -2.98,-0.664c-1.516,0 -3.189,0.336 -4.586,0.802l-1.769,-7.345c2.062,-0.669 4.124,-1.016 6.131,-1.016c2.872,0 5.629,0.712 8.109,2.214c5.601,3.391 8.239,9.018 4.796,14.703c-3.315,5.475 -10.828,2.768 -12.359,5.295l-1.403,2.316Z" style="fill:#b9bcbc;fill-rule:nonzero;"/></g></svg>